<mxfile host="app.diagrams.net" agent="Mozilla/5.0 (Windows NT 10.0; Win64; x64) AppleWebKit/537.36 (KHTML, like Gecko) Chrome/129.0.0.0 Safari/537.36" version="24.7.16">
  <diagram name="Pagina-1" id="-3kdqR7RlXZIh85blPJF">
    <mxGraphModel dx="3452" dy="1325" grid="1" gridSize="10" guides="1" tooltips="1" connect="1" arrows="1" fold="1" page="1" pageScale="1" pageWidth="827" pageHeight="1169" math="0" shadow="0">
      <root>
        <mxCell id="0" />
        <mxCell id="1" parent="0" />
        <mxCell id="Uu9BYE0EDP3QgABRB0VM-2" value="" style="rounded=1;whiteSpace=wrap;html=1;" vertex="1" parent="1">
          <mxGeometry x="20" y="20" width="1090" height="1800" as="geometry" />
        </mxCell>
        <mxCell id="Uu9BYE0EDP3QgABRB0VM-39" value="" style="rounded=0;whiteSpace=wrap;html=1;strokeColor=default;align=center;verticalAlign=top;fontFamily=Architects Daughter;fontSource=https%3A%2F%2Ffonts.googleapis.com%2Fcss%3Ffamily%3DArchitects%2BDaughter;fontSize=11;fontColor=default;labelBackgroundColor=default;fillColor=default;sketch=1;curveFitting=1;jiggle=2;" vertex="1" parent="1">
          <mxGeometry x="60" y="140" width="1010" height="1590" as="geometry" />
        </mxCell>
        <mxCell id="Uu9BYE0EDP3QgABRB0VM-177" value="" style="rounded=0;whiteSpace=wrap;html=1;strokeColor=default;align=center;verticalAlign=top;fontFamily=Architects Daughter;fontSource=https%3A%2F%2Ffonts.googleapis.com%2Fcss%3Ffamily%3DArchitects%2BDaughter;fontSize=11;fontColor=default;labelBackgroundColor=default;fillColor=default;" vertex="1" parent="1">
          <mxGeometry x="140" y="215" width="870" height="75" as="geometry" />
        </mxCell>
        <mxCell id="Uu9BYE0EDP3QgABRB0VM-9" value="Ingress" style="aspect=fixed;sketch=0;html=1;dashed=0;whitespace=wrap;verticalLabelPosition=top;verticalAlign=bottom;fillColor=#2875E2;strokeColor=#ffffff;points=[[0.005,0.63,0],[0.1,0.2,0],[0.9,0.2,0],[0.5,0,0],[0.995,0.63,0],[0.72,0.99,0],[0.5,1,0],[0.28,0.99,0]];shape=mxgraph.kubernetes.icon2;prIcon=ing;align=center;fontFamily=Architects Daughter;fontSource=https%3A%2F%2Ffonts.googleapis.com%2Fcss%3Ffamily%3DArchitects%2BDaughter;fontSize=15;fontColor=default;labelBackgroundColor=default;labelPosition=center;" vertex="1" parent="1">
          <mxGeometry x="573.8299999999999" y="188" width="50" height="48" as="geometry" />
        </mxCell>
        <mxCell id="Uu9BYE0EDP3QgABRB0VM-15" value="Kubernetes" style="shape=image;verticalLabelPosition=middle;labelBackgroundColor=default;verticalAlign=middle;aspect=fixed;imageAspect=0;image=https://www.logo.wine/a/logo/Kubernetes/Kubernetes-Logo.wine.svg;fontFamily=Architects Daughter;fontSource=https%3A%2F%2Ffonts.googleapis.com%2Fcss%3Ffamily%3DArchitects%2BDaughter;fontSize=15;labelPosition=right;align=left;spacingLeft=-28;" vertex="1" parent="1">
          <mxGeometry x="89.99999999999996" y="30" width="110" height="73.33" as="geometry" />
        </mxCell>
        <mxCell id="Uu9BYE0EDP3QgABRB0VM-16" value="Shared WriteMany" style="aspect=fixed;sketch=0;html=1;dashed=0;whitespace=wrap;verticalLabelPosition=bottom;verticalAlign=top;fillColor=#2875E2;strokeColor=#ffffff;points=[[0.005,0.63,0],[0.1,0.2,0],[0.9,0.2,0],[0.5,0,0],[0.995,0.63,0],[0.72,0.99,0],[0.5,1,0],[0.28,0.99,0]];shape=mxgraph.kubernetes.icon2;kubernetesLabel=1;prIcon=pv;align=center;fontFamily=Architects Daughter;fontSource=https%3A%2F%2Ffonts.googleapis.com%2Fcss%3Ffamily%3DArchitects%2BDaughter;fontSize=15;fontColor=default;labelBackgroundColor=default;" vertex="1" parent="1">
          <mxGeometry x="550" y="1640" width="50" height="48" as="geometry" />
        </mxCell>
        <mxCell id="Uu9BYE0EDP3QgABRB0VM-38" value="payhub" style="aspect=fixed;sketch=0;html=1;dashed=0;whitespace=wrap;verticalLabelPosition=middle;verticalAlign=middle;fillColor=#2875E2;strokeColor=#ffffff;points=[[0.005,0.63,0],[0.1,0.2,0],[0.9,0.2,0],[0.5,0,0],[0.995,0.63,0],[0.72,0.99,0],[0.5,1,0],[0.28,0.99,0]];shape=mxgraph.kubernetes.icon2;kubernetesLabel=1;prIcon=ns;align=left;fontFamily=Architects Daughter;fontSource=https%3A%2F%2Ffonts.googleapis.com%2Fcss%3Ffamily%3DArchitects%2BDaughter;fontSize=15;fontColor=default;labelBackgroundColor=default;labelPosition=right;spacingBottom=-9;" vertex="1" parent="1">
          <mxGeometry x="40.00000000000003" y="130" width="50" height="48" as="geometry" />
        </mxCell>
        <mxCell id="Uu9BYE0EDP3QgABRB0VM-42" value="" style="group" vertex="1" connectable="0" parent="1">
          <mxGeometry x="130" y="430" width="420" height="350" as="geometry" />
        </mxCell>
        <mxCell id="Uu9BYE0EDP3QgABRB0VM-10" value="&lt;span style=&quot;background-color: rgb(251, 251, 251);&quot;&gt;&lt;font style=&quot;font-size: 20px;&quot;&gt;p4pa-payhub-be-be4fe&lt;/font&gt;&lt;/span&gt;" style="aspect=fixed;sketch=0;html=1;dashed=0;whitespace=wrap;verticalLabelPosition=top;verticalAlign=bottom;fillColor=#2875E2;strokeColor=#ffffff;points=[[0.005,0.63,0],[0.1,0.2,0],[0.9,0.2,0],[0.5,0,0],[0.995,0.63,0],[0.72,0.99,0],[0.5,1,0],[0.28,0.99,0]];shape=mxgraph.kubernetes.icon2;prIcon=svc;align=center;fontFamily=Architects Daughter;fontSource=https%3A%2F%2Ffonts.googleapis.com%2Fcss%3Ffamily%3DArchitects%2BDaughter;fontSize=15;fontColor=default;labelBackgroundColor=default;fontStyle=1;labelPosition=center;" vertex="1" parent="Uu9BYE0EDP3QgABRB0VM-42">
          <mxGeometry x="185" width="50" height="48" as="geometry" />
        </mxCell>
        <mxCell id="Uu9BYE0EDP3QgABRB0VM-37" value="p4pa-payhub-be-be4fe" style="group;fontFamily=Architects Daughter;fontSource=https%3A%2F%2Ffonts.googleapis.com%2Fcss%3Ffamily%3DArchitects%2BDaughter;fontSize=16;labelPosition=center;verticalLabelPosition=top;align=center;verticalAlign=bottom;fontStyle=0;spacingBottom=-15;" vertex="1" connectable="0" parent="Uu9BYE0EDP3QgABRB0VM-42">
          <mxGeometry y="90" width="420" height="260" as="geometry" />
        </mxCell>
        <mxCell id="Uu9BYE0EDP3QgABRB0VM-18" value="" style="rounded=0;whiteSpace=wrap;html=1;strokeColor=default;align=center;verticalAlign=top;fontFamily=Architects Daughter;fontSource=https%3A%2F%2Ffonts.googleapis.com%2Fcss%3Ffamily%3DArchitects%2BDaughter;fontSize=15;fontColor=default;labelBackgroundColor=default;fillColor=default;dashed=1;" vertex="1" parent="Uu9BYE0EDP3QgABRB0VM-37">
          <mxGeometry x="20" y="20" width="400" height="240" as="geometry" />
        </mxCell>
        <mxCell id="Uu9BYE0EDP3QgABRB0VM-7" value="" style="aspect=fixed;sketch=0;html=1;dashed=0;whitespace=wrap;verticalLabelPosition=bottom;verticalAlign=top;fillColor=#2875E2;strokeColor=#ffffff;points=[[0.005,0.63,0],[0.1,0.2,0],[0.9,0.2,0],[0.5,0,0],[0.995,0.63,0],[0.72,0.99,0],[0.5,1,0],[0.28,0.99,0]];shape=mxgraph.kubernetes.icon2;kubernetesLabel=1;prIcon=deploy;align=center;fontFamily=Architects Daughter;fontSource=https%3A%2F%2Ffonts.googleapis.com%2Fcss%3Ffamily%3DArchitects%2BDaughter;fontSize=15;fontColor=default;labelBackgroundColor=default;" vertex="1" parent="Uu9BYE0EDP3QgABRB0VM-37">
          <mxGeometry width="50" height="48" as="geometry" />
        </mxCell>
        <mxCell id="Uu9BYE0EDP3QgABRB0VM-36" value="" style="group" vertex="1" connectable="0" parent="Uu9BYE0EDP3QgABRB0VM-37">
          <mxGeometry x="90" y="30" width="280" height="220" as="geometry" />
        </mxCell>
        <mxCell id="Uu9BYE0EDP3QgABRB0VM-24" value="" style="rounded=0;whiteSpace=wrap;html=1;strokeColor=default;align=center;verticalAlign=top;fontFamily=Architects Daughter;fontSource=https%3A%2F%2Ffonts.googleapis.com%2Fcss%3Ffamily%3DArchitects%2BDaughter;fontSize=15;fontColor=default;labelBackgroundColor=default;fillColor=default;sketch=1;curveFitting=1;jiggle=2;dashed=1;dashPattern=12 12;" vertex="1" parent="Uu9BYE0EDP3QgABRB0VM-36">
          <mxGeometry y="20" width="280" height="200" as="geometry" />
        </mxCell>
        <mxCell id="Uu9BYE0EDP3QgABRB0VM-19" value="" style="shape=cube;whiteSpace=wrap;html=1;boundedLbl=1;backgroundOutline=1;darkOpacity=0.05;darkOpacity2=0.1;strokeColor=default;align=center;verticalAlign=top;fontFamily=Architects Daughter;fontSource=https%3A%2F%2Ffonts.googleapis.com%2Fcss%3Ffamily%3DArchitects%2BDaughter;fontSize=15;fontColor=default;labelBackgroundColor=default;fillColor=default;" vertex="1" parent="Uu9BYE0EDP3QgABRB0VM-36">
          <mxGeometry x="40" y="80" width="120" height="120" as="geometry" />
        </mxCell>
        <mxCell id="Uu9BYE0EDP3QgABRB0VM-17" value="&lt;font style=&quot;font-size: 15px;&quot;&gt;/shared&lt;/font&gt;" style="aspect=fixed;sketch=0;html=1;dashed=0;whitespace=wrap;verticalLabelPosition=middle;verticalAlign=middle;fillColor=#2875E2;strokeColor=#ffffff;points=[[0.005,0.63,0],[0.1,0.2,0],[0.9,0.2,0],[0.5,0,0],[0.995,0.63,0],[0.72,0.99,0],[0.5,1,0],[0.28,0.99,0]];shape=mxgraph.kubernetes.icon2;prIcon=vol;align=left;fontFamily=Architects Daughter;fontSource=https%3A%2F%2Ffonts.googleapis.com%2Fcss%3Ffamily%3DArchitects%2BDaughter;fontSize=12;fontColor=default;labelBackgroundColor=default;labelPosition=right;spacingTop=0;spacingBottom=-11;" vertex="1" parent="Uu9BYE0EDP3QgABRB0VM-36">
          <mxGeometry x="60" y="170" width="31.25" height="30" as="geometry" />
        </mxCell>
        <mxCell id="Uu9BYE0EDP3QgABRB0VM-6" value="" style="aspect=fixed;sketch=0;html=1;dashed=0;whitespace=wrap;verticalLabelPosition=bottom;verticalAlign=top;fillColor=#2875E2;strokeColor=#ffffff;points=[[0.005,0.63,0],[0.1,0.2,0],[0.9,0.2,0],[0.5,0,0],[0.995,0.63,0],[0.72,0.99,0],[0.5,1,0],[0.28,0.99,0]];shape=mxgraph.kubernetes.icon2;kubernetesLabel=1;prIcon=pod;align=center;fontFamily=Architects Daughter;fontSource=https%3A%2F%2Ffonts.googleapis.com%2Fcss%3Ffamily%3DArchitects%2BDaughter;fontSize=15;fontColor=default;labelBackgroundColor=default;" vertex="1" parent="Uu9BYE0EDP3QgABRB0VM-36">
          <mxGeometry x="20" y="50" width="50" height="48" as="geometry" />
        </mxCell>
        <mxCell id="Uu9BYE0EDP3QgABRB0VM-21" value="" style="shape=image;verticalLabelPosition=bottom;labelBackgroundColor=default;verticalAlign=top;aspect=fixed;imageAspect=0;image=https://upload.wikimedia.org/wikipedia/commons/thumb/7/79/Spring_Boot.svg/120px-Spring_Boot.svg.png;" vertex="1" parent="Uu9BYE0EDP3QgABRB0VM-36">
          <mxGeometry x="80" y="105" width="70" height="70" as="geometry" />
        </mxCell>
        <mxCell id="Uu9BYE0EDP3QgABRB0VM-5" value="&lt;font style=&quot;font-size: 15px;&quot;&gt;Horizontal Pod&lt;/font&gt;&lt;div&gt;&lt;font style=&quot;font-size: 15px;&quot;&gt;&amp;nbsp; &amp;nbsp; &amp;nbsp; &amp;nbsp; &amp;nbsp; &amp;nbsp; Autoscale&lt;/font&gt;&lt;/div&gt;" style="aspect=fixed;sketch=0;html=1;dashed=0;whitespace=wrap;verticalLabelPosition=bottom;verticalAlign=top;fillColor=#2875E2;strokeColor=#ffffff;points=[[0.005,0.63,0],[0.1,0.2,0],[0.9,0.2,0],[0.5,0,0],[0.995,0.63,0],[0.72,0.99,0],[0.5,1,0],[0.28,0.99,0]];shape=mxgraph.kubernetes.icon2;prIcon=hpa;align=left;fontFamily=Architects Daughter;fontSource=https%3A%2F%2Ffonts.googleapis.com%2Fcss%3Ffamily%3DArchitects%2BDaughter;fontSize=12;fontColor=default;labelBackgroundColor=default;labelPosition=right;spacingTop=-14;spacingLeft=-5;" vertex="1" parent="Uu9BYE0EDP3QgABRB0VM-36">
          <mxGeometry x="104.37" width="31.26" height="30" as="geometry" />
        </mxCell>
        <mxCell id="Uu9BYE0EDP3QgABRB0VM-29" style="edgeStyle=orthogonalEdgeStyle;rounded=0;orthogonalLoop=1;jettySize=auto;html=1;entryX=0.5;entryY=0;entryDx=0;entryDy=0;fontFamily=Architects Daughter;fontSource=https%3A%2F%2Ffonts.googleapis.com%2Fcss%3Ffamily%3DArchitects%2BDaughter;fontSize=11;fontColor=default;labelBackgroundColor=default;strokeColor=default;align=center;verticalAlign=middle;endArrow=classicThin;endFill=1;curved=1;entryPerimeter=0;" edge="1" parent="Uu9BYE0EDP3QgABRB0VM-36" target="Uu9BYE0EDP3QgABRB0VM-33">
          <mxGeometry relative="1" as="geometry">
            <mxPoint x="120" y="30" as="sourcePoint" />
            <mxPoint x="195" y="135" as="targetPoint" />
            <Array as="points">
              <mxPoint x="120" y="60" />
              <mxPoint x="205" y="60" />
            </Array>
          </mxGeometry>
        </mxCell>
        <mxCell id="Uu9BYE0EDP3QgABRB0VM-28" value="&lt;font style=&quot;font-size: 15px;&quot;&gt;metrics&lt;/font&gt;" style="rounded=0;orthogonalLoop=1;jettySize=auto;html=1;exitX=0.5;exitY=1;exitDx=0;exitDy=0;exitPerimeter=0;entryX=0.9;entryY=0.2;entryDx=0;entryDy=0;entryPerimeter=0;fontFamily=Architects Daughter;fontSource=https%3A%2F%2Ffonts.googleapis.com%2Fcss%3Ffamily%3DArchitects%2BDaughter;fontSize=11;fontColor=default;labelBackgroundColor=default;edgeStyle=orthogonalEdgeStyle;curved=1;endArrow=classicThin;endFill=1;" edge="1" parent="Uu9BYE0EDP3QgABRB0VM-36" source="Uu9BYE0EDP3QgABRB0VM-5" target="Uu9BYE0EDP3QgABRB0VM-6">
          <mxGeometry x="-0.5272" relative="1" as="geometry">
            <Array as="points">
              <mxPoint x="120" y="60" />
            </Array>
            <mxPoint as="offset" />
          </mxGeometry>
        </mxCell>
        <mxCell id="Uu9BYE0EDP3QgABRB0VM-35" value="" style="group" vertex="1" connectable="0" parent="Uu9BYE0EDP3QgABRB0VM-36">
          <mxGeometry x="170" y="152" width="70" height="48" as="geometry" />
        </mxCell>
        <mxCell id="Uu9BYE0EDP3QgABRB0VM-32" value="" style="aspect=fixed;sketch=0;html=1;dashed=0;whitespace=wrap;verticalLabelPosition=bottom;verticalAlign=top;fillColor=#2875E2;strokeColor=#ffffff;points=[[0.005,0.63,0],[0.1,0.2,0],[0.9,0.2,0],[0.5,0,0],[0.995,0.63,0],[0.72,0.99,0],[0.5,1,0],[0.28,0.99,0]];shape=mxgraph.kubernetes.icon2;kubernetesLabel=1;prIcon=pod;align=center;fontFamily=Architects Daughter;fontSource=https%3A%2F%2Ffonts.googleapis.com%2Fcss%3Ffamily%3DArchitects%2BDaughter;fontSize=11;fontColor=default;labelBackgroundColor=default;" vertex="1" parent="Uu9BYE0EDP3QgABRB0VM-35">
          <mxGeometry x="20" width="50" height="48" as="geometry" />
        </mxCell>
        <mxCell id="Uu9BYE0EDP3QgABRB0VM-33" value="" style="aspect=fixed;sketch=0;html=1;dashed=0;whitespace=wrap;verticalLabelPosition=bottom;verticalAlign=top;fillColor=#2875E2;strokeColor=#ffffff;points=[[0.005,0.63,0],[0.1,0.2,0],[0.9,0.2,0],[0.5,0,0],[0.995,0.63,0],[0.72,0.99,0],[0.5,1,0],[0.28,0.99,0]];shape=mxgraph.kubernetes.icon2;kubernetesLabel=1;prIcon=pod;align=center;fontFamily=Architects Daughter;fontSource=https%3A%2F%2Ffonts.googleapis.com%2Fcss%3Ffamily%3DArchitects%2BDaughter;fontSize=11;fontColor=default;labelBackgroundColor=default;" vertex="1" parent="Uu9BYE0EDP3QgABRB0VM-35">
          <mxGeometry x="10" width="50" height="48" as="geometry" />
        </mxCell>
        <mxCell id="Uu9BYE0EDP3QgABRB0VM-34" value="" style="aspect=fixed;sketch=0;html=1;dashed=0;whitespace=wrap;verticalLabelPosition=bottom;verticalAlign=top;fillColor=#2875E2;strokeColor=#ffffff;points=[[0.005,0.63,0],[0.1,0.2,0],[0.9,0.2,0],[0.5,0,0],[0.995,0.63,0],[0.72,0.99,0],[0.5,1,0],[0.28,0.99,0]];shape=mxgraph.kubernetes.icon2;kubernetesLabel=1;prIcon=pod;align=center;fontFamily=Architects Daughter;fontSource=https%3A%2F%2Ffonts.googleapis.com%2Fcss%3Ffamily%3DArchitects%2BDaughter;fontSize=11;fontColor=default;labelBackgroundColor=default;" vertex="1" parent="Uu9BYE0EDP3QgABRB0VM-35">
          <mxGeometry width="50" height="48" as="geometry" />
        </mxCell>
        <mxCell id="Uu9BYE0EDP3QgABRB0VM-40" style="edgeStyle=orthogonalEdgeStyle;shape=connector;curved=1;rounded=0;orthogonalLoop=1;jettySize=auto;html=1;strokeColor=default;align=center;verticalAlign=middle;fontFamily=Architects Daughter;fontSource=https%3A%2F%2Ffonts.googleapis.com%2Fcss%3Ffamily%3DArchitects%2BDaughter;fontSize=11;fontColor=default;labelBackgroundColor=default;endArrow=classicThin;endFill=1;exitX=0.5;exitY=1;exitDx=0;exitDy=0;exitPerimeter=0;" edge="1" parent="Uu9BYE0EDP3QgABRB0VM-42" source="Uu9BYE0EDP3QgABRB0VM-10" target="Uu9BYE0EDP3QgABRB0VM-6">
          <mxGeometry relative="1" as="geometry">
            <Array as="points">
              <mxPoint x="210" y="80" />
              <mxPoint x="60" y="80" />
              <mxPoint x="60" y="194" />
            </Array>
          </mxGeometry>
        </mxCell>
        <mxCell id="Uu9BYE0EDP3QgABRB0VM-41" style="edgeStyle=orthogonalEdgeStyle;shape=connector;curved=1;rounded=0;orthogonalLoop=1;jettySize=auto;html=1;strokeColor=default;align=center;verticalAlign=middle;fontFamily=Architects Daughter;fontSource=https%3A%2F%2Ffonts.googleapis.com%2Fcss%3Ffamily%3DArchitects%2BDaughter;fontSize=11;fontColor=default;labelBackgroundColor=default;endArrow=classicThin;endFill=1;exitX=0.5;exitY=1;exitDx=0;exitDy=0;exitPerimeter=0;" edge="1" parent="Uu9BYE0EDP3QgABRB0VM-42" source="Uu9BYE0EDP3QgABRB0VM-10" target="Uu9BYE0EDP3QgABRB0VM-33">
          <mxGeometry relative="1" as="geometry">
            <Array as="points">
              <mxPoint x="210" y="80" />
              <mxPoint x="390" y="80" />
              <mxPoint x="390" y="296" />
            </Array>
          </mxGeometry>
        </mxCell>
        <mxCell id="Uu9BYE0EDP3QgABRB0VM-43" value="" style="group" vertex="1" connectable="0" parent="1">
          <mxGeometry x="580" y="430" width="420" height="350" as="geometry" />
        </mxCell>
        <mxCell id="Uu9BYE0EDP3QgABRB0VM-44" value="&lt;font style=&quot;font-size: 20px;&quot;&gt;p4pa-payhub-be-pivot-be4fe&lt;/font&gt;" style="aspect=fixed;sketch=0;html=1;dashed=0;whitespace=wrap;verticalLabelPosition=top;verticalAlign=bottom;fillColor=#2875E2;strokeColor=#ffffff;points=[[0.005,0.63,0],[0.1,0.2,0],[0.9,0.2,0],[0.5,0,0],[0.995,0.63,0],[0.72,0.99,0],[0.5,1,0],[0.28,0.99,0]];shape=mxgraph.kubernetes.icon2;prIcon=svc;align=center;fontFamily=Architects Daughter;fontSource=https%3A%2F%2Ffonts.googleapis.com%2Fcss%3Ffamily%3DArchitects%2BDaughter;fontSize=15;fontColor=default;labelBackgroundColor=default;fontStyle=1;labelPosition=center;" vertex="1" parent="Uu9BYE0EDP3QgABRB0VM-43">
          <mxGeometry x="185" width="50" height="48" as="geometry" />
        </mxCell>
        <mxCell id="Uu9BYE0EDP3QgABRB0VM-45" value="p4pa-payhub-be-pivot-be4fe" style="group;fontFamily=Architects Daughter;fontSource=https%3A%2F%2Ffonts.googleapis.com%2Fcss%3Ffamily%3DArchitects%2BDaughter;fontSize=16;labelPosition=center;verticalLabelPosition=top;align=center;verticalAlign=bottom;fontStyle=0;spacingBottom=-15;" vertex="1" connectable="0" parent="Uu9BYE0EDP3QgABRB0VM-43">
          <mxGeometry y="90" width="420" height="260" as="geometry" />
        </mxCell>
        <mxCell id="Uu9BYE0EDP3QgABRB0VM-46" value="" style="rounded=0;whiteSpace=wrap;html=1;strokeColor=default;align=center;verticalAlign=top;fontFamily=Architects Daughter;fontSource=https%3A%2F%2Ffonts.googleapis.com%2Fcss%3Ffamily%3DArchitects%2BDaughter;fontSize=15;fontColor=default;labelBackgroundColor=default;fillColor=default;dashed=1;" vertex="1" parent="Uu9BYE0EDP3QgABRB0VM-45">
          <mxGeometry x="20" y="20" width="400" height="240" as="geometry" />
        </mxCell>
        <mxCell id="Uu9BYE0EDP3QgABRB0VM-47" value="" style="aspect=fixed;sketch=0;html=1;dashed=0;whitespace=wrap;verticalLabelPosition=bottom;verticalAlign=top;fillColor=#2875E2;strokeColor=#ffffff;points=[[0.005,0.63,0],[0.1,0.2,0],[0.9,0.2,0],[0.5,0,0],[0.995,0.63,0],[0.72,0.99,0],[0.5,1,0],[0.28,0.99,0]];shape=mxgraph.kubernetes.icon2;kubernetesLabel=1;prIcon=deploy;align=center;fontFamily=Architects Daughter;fontSource=https%3A%2F%2Ffonts.googleapis.com%2Fcss%3Ffamily%3DArchitects%2BDaughter;fontSize=15;fontColor=default;labelBackgroundColor=default;" vertex="1" parent="Uu9BYE0EDP3QgABRB0VM-45">
          <mxGeometry width="50" height="48" as="geometry" />
        </mxCell>
        <mxCell id="Uu9BYE0EDP3QgABRB0VM-48" value="" style="group" vertex="1" connectable="0" parent="Uu9BYE0EDP3QgABRB0VM-45">
          <mxGeometry x="90" y="30" width="280" height="220" as="geometry" />
        </mxCell>
        <mxCell id="Uu9BYE0EDP3QgABRB0VM-49" value="" style="rounded=0;whiteSpace=wrap;html=1;strokeColor=default;align=center;verticalAlign=top;fontFamily=Architects Daughter;fontSource=https%3A%2F%2Ffonts.googleapis.com%2Fcss%3Ffamily%3DArchitects%2BDaughter;fontSize=15;fontColor=default;labelBackgroundColor=default;fillColor=default;sketch=1;curveFitting=1;jiggle=2;dashed=1;dashPattern=12 12;" vertex="1" parent="Uu9BYE0EDP3QgABRB0VM-48">
          <mxGeometry y="20" width="280" height="200" as="geometry" />
        </mxCell>
        <mxCell id="Uu9BYE0EDP3QgABRB0VM-50" value="" style="shape=cube;whiteSpace=wrap;html=1;boundedLbl=1;backgroundOutline=1;darkOpacity=0.05;darkOpacity2=0.1;strokeColor=default;align=center;verticalAlign=top;fontFamily=Architects Daughter;fontSource=https%3A%2F%2Ffonts.googleapis.com%2Fcss%3Ffamily%3DArchitects%2BDaughter;fontSize=15;fontColor=default;labelBackgroundColor=default;fillColor=default;" vertex="1" parent="Uu9BYE0EDP3QgABRB0VM-48">
          <mxGeometry x="40" y="80" width="120" height="120" as="geometry" />
        </mxCell>
        <mxCell id="Uu9BYE0EDP3QgABRB0VM-51" value="&lt;font style=&quot;font-size: 15px;&quot;&gt;/shared&lt;/font&gt;" style="aspect=fixed;sketch=0;html=1;dashed=0;whitespace=wrap;verticalLabelPosition=middle;verticalAlign=middle;fillColor=#2875E2;strokeColor=#ffffff;points=[[0.005,0.63,0],[0.1,0.2,0],[0.9,0.2,0],[0.5,0,0],[0.995,0.63,0],[0.72,0.99,0],[0.5,1,0],[0.28,0.99,0]];shape=mxgraph.kubernetes.icon2;prIcon=vol;align=left;fontFamily=Architects Daughter;fontSource=https%3A%2F%2Ffonts.googleapis.com%2Fcss%3Ffamily%3DArchitects%2BDaughter;fontSize=12;fontColor=default;labelBackgroundColor=default;labelPosition=right;spacingTop=0;spacingBottom=-11;" vertex="1" parent="Uu9BYE0EDP3QgABRB0VM-48">
          <mxGeometry x="60" y="170" width="31.25" height="30" as="geometry" />
        </mxCell>
        <mxCell id="Uu9BYE0EDP3QgABRB0VM-52" value="" style="aspect=fixed;sketch=0;html=1;dashed=0;whitespace=wrap;verticalLabelPosition=bottom;verticalAlign=top;fillColor=#2875E2;strokeColor=#ffffff;points=[[0.005,0.63,0],[0.1,0.2,0],[0.9,0.2,0],[0.5,0,0],[0.995,0.63,0],[0.72,0.99,0],[0.5,1,0],[0.28,0.99,0]];shape=mxgraph.kubernetes.icon2;kubernetesLabel=1;prIcon=pod;align=center;fontFamily=Architects Daughter;fontSource=https%3A%2F%2Ffonts.googleapis.com%2Fcss%3Ffamily%3DArchitects%2BDaughter;fontSize=15;fontColor=default;labelBackgroundColor=default;" vertex="1" parent="Uu9BYE0EDP3QgABRB0VM-48">
          <mxGeometry x="20" y="50" width="50" height="48" as="geometry" />
        </mxCell>
        <mxCell id="Uu9BYE0EDP3QgABRB0VM-53" value="" style="shape=image;verticalLabelPosition=bottom;labelBackgroundColor=default;verticalAlign=top;aspect=fixed;imageAspect=0;image=https://upload.wikimedia.org/wikipedia/commons/thumb/7/79/Spring_Boot.svg/120px-Spring_Boot.svg.png;" vertex="1" parent="Uu9BYE0EDP3QgABRB0VM-48">
          <mxGeometry x="80" y="105" width="70" height="70" as="geometry" />
        </mxCell>
        <mxCell id="Uu9BYE0EDP3QgABRB0VM-54" value="&lt;font style=&quot;font-size: 15px;&quot;&gt;Horizontal Pod&lt;br&gt;&lt;/font&gt;&lt;div&gt;&lt;font style=&quot;font-size: 15px;&quot;&gt;&amp;nbsp; &amp;nbsp; &amp;nbsp; &amp;nbsp; &amp;nbsp; &amp;nbsp; Autoscale&lt;/font&gt;&lt;/div&gt;" style="aspect=fixed;sketch=0;html=1;dashed=0;whitespace=wrap;verticalLabelPosition=bottom;verticalAlign=top;fillColor=#2875E2;strokeColor=#ffffff;points=[[0.005,0.63,0],[0.1,0.2,0],[0.9,0.2,0],[0.5,0,0],[0.995,0.63,0],[0.72,0.99,0],[0.5,1,0],[0.28,0.99,0]];shape=mxgraph.kubernetes.icon2;prIcon=hpa;align=left;fontFamily=Architects Daughter;fontSource=https%3A%2F%2Ffonts.googleapis.com%2Fcss%3Ffamily%3DArchitects%2BDaughter;fontSize=12;fontColor=default;labelBackgroundColor=default;labelPosition=right;spacingTop=-14;spacingLeft=-5;" vertex="1" parent="Uu9BYE0EDP3QgABRB0VM-48">
          <mxGeometry x="104.37" width="31.26" height="30" as="geometry" />
        </mxCell>
        <mxCell id="Uu9BYE0EDP3QgABRB0VM-55" style="edgeStyle=orthogonalEdgeStyle;rounded=0;orthogonalLoop=1;jettySize=auto;html=1;entryX=0.5;entryY=0;entryDx=0;entryDy=0;fontFamily=Architects Daughter;fontSource=https%3A%2F%2Ffonts.googleapis.com%2Fcss%3Ffamily%3DArchitects%2BDaughter;fontSize=11;fontColor=default;labelBackgroundColor=default;strokeColor=default;align=center;verticalAlign=middle;endArrow=classicThin;endFill=1;curved=1;entryPerimeter=0;" edge="1" parent="Uu9BYE0EDP3QgABRB0VM-48" target="Uu9BYE0EDP3QgABRB0VM-59">
          <mxGeometry relative="1" as="geometry">
            <mxPoint x="120" y="30" as="sourcePoint" />
            <mxPoint x="195" y="135" as="targetPoint" />
            <Array as="points">
              <mxPoint x="120" y="60" />
              <mxPoint x="205" y="60" />
            </Array>
          </mxGeometry>
        </mxCell>
        <mxCell id="Uu9BYE0EDP3QgABRB0VM-56" value="&lt;font style=&quot;font-size: 15px;&quot;&gt;metrics&lt;/font&gt;" style="rounded=0;orthogonalLoop=1;jettySize=auto;html=1;exitX=0.5;exitY=1;exitDx=0;exitDy=0;exitPerimeter=0;entryX=0.9;entryY=0.2;entryDx=0;entryDy=0;entryPerimeter=0;fontFamily=Architects Daughter;fontSource=https%3A%2F%2Ffonts.googleapis.com%2Fcss%3Ffamily%3DArchitects%2BDaughter;fontSize=11;fontColor=default;labelBackgroundColor=default;edgeStyle=orthogonalEdgeStyle;curved=1;endArrow=classicThin;endFill=1;" edge="1" parent="Uu9BYE0EDP3QgABRB0VM-48" source="Uu9BYE0EDP3QgABRB0VM-54" target="Uu9BYE0EDP3QgABRB0VM-52">
          <mxGeometry x="-0.5272" relative="1" as="geometry">
            <Array as="points">
              <mxPoint x="120" y="60" />
            </Array>
            <mxPoint as="offset" />
          </mxGeometry>
        </mxCell>
        <mxCell id="Uu9BYE0EDP3QgABRB0VM-57" value="" style="group" vertex="1" connectable="0" parent="Uu9BYE0EDP3QgABRB0VM-48">
          <mxGeometry x="170" y="152" width="70" height="48" as="geometry" />
        </mxCell>
        <mxCell id="Uu9BYE0EDP3QgABRB0VM-58" value="" style="aspect=fixed;sketch=0;html=1;dashed=0;whitespace=wrap;verticalLabelPosition=bottom;verticalAlign=top;fillColor=#2875E2;strokeColor=#ffffff;points=[[0.005,0.63,0],[0.1,0.2,0],[0.9,0.2,0],[0.5,0,0],[0.995,0.63,0],[0.72,0.99,0],[0.5,1,0],[0.28,0.99,0]];shape=mxgraph.kubernetes.icon2;kubernetesLabel=1;prIcon=pod;align=center;fontFamily=Architects Daughter;fontSource=https%3A%2F%2Ffonts.googleapis.com%2Fcss%3Ffamily%3DArchitects%2BDaughter;fontSize=11;fontColor=default;labelBackgroundColor=default;" vertex="1" parent="Uu9BYE0EDP3QgABRB0VM-57">
          <mxGeometry x="20" width="50" height="48" as="geometry" />
        </mxCell>
        <mxCell id="Uu9BYE0EDP3QgABRB0VM-59" value="" style="aspect=fixed;sketch=0;html=1;dashed=0;whitespace=wrap;verticalLabelPosition=bottom;verticalAlign=top;fillColor=#2875E2;strokeColor=#ffffff;points=[[0.005,0.63,0],[0.1,0.2,0],[0.9,0.2,0],[0.5,0,0],[0.995,0.63,0],[0.72,0.99,0],[0.5,1,0],[0.28,0.99,0]];shape=mxgraph.kubernetes.icon2;kubernetesLabel=1;prIcon=pod;align=center;fontFamily=Architects Daughter;fontSource=https%3A%2F%2Ffonts.googleapis.com%2Fcss%3Ffamily%3DArchitects%2BDaughter;fontSize=11;fontColor=default;labelBackgroundColor=default;" vertex="1" parent="Uu9BYE0EDP3QgABRB0VM-57">
          <mxGeometry x="10" width="50" height="48" as="geometry" />
        </mxCell>
        <mxCell id="Uu9BYE0EDP3QgABRB0VM-60" value="" style="aspect=fixed;sketch=0;html=1;dashed=0;whitespace=wrap;verticalLabelPosition=bottom;verticalAlign=top;fillColor=#2875E2;strokeColor=#ffffff;points=[[0.005,0.63,0],[0.1,0.2,0],[0.9,0.2,0],[0.5,0,0],[0.995,0.63,0],[0.72,0.99,0],[0.5,1,0],[0.28,0.99,0]];shape=mxgraph.kubernetes.icon2;kubernetesLabel=1;prIcon=pod;align=center;fontFamily=Architects Daughter;fontSource=https%3A%2F%2Ffonts.googleapis.com%2Fcss%3Ffamily%3DArchitects%2BDaughter;fontSize=11;fontColor=default;labelBackgroundColor=default;" vertex="1" parent="Uu9BYE0EDP3QgABRB0VM-57">
          <mxGeometry width="50" height="48" as="geometry" />
        </mxCell>
        <mxCell id="Uu9BYE0EDP3QgABRB0VM-61" style="edgeStyle=orthogonalEdgeStyle;shape=connector;curved=1;rounded=0;orthogonalLoop=1;jettySize=auto;html=1;strokeColor=default;align=center;verticalAlign=middle;fontFamily=Architects Daughter;fontSource=https%3A%2F%2Ffonts.googleapis.com%2Fcss%3Ffamily%3DArchitects%2BDaughter;fontSize=11;fontColor=default;labelBackgroundColor=default;endArrow=classicThin;endFill=1;exitX=0.5;exitY=1;exitDx=0;exitDy=0;exitPerimeter=0;" edge="1" parent="Uu9BYE0EDP3QgABRB0VM-43" source="Uu9BYE0EDP3QgABRB0VM-44" target="Uu9BYE0EDP3QgABRB0VM-52">
          <mxGeometry relative="1" as="geometry">
            <Array as="points">
              <mxPoint x="210" y="80" />
              <mxPoint x="60" y="80" />
              <mxPoint x="60" y="194" />
            </Array>
          </mxGeometry>
        </mxCell>
        <mxCell id="Uu9BYE0EDP3QgABRB0VM-62" style="edgeStyle=orthogonalEdgeStyle;shape=connector;curved=1;rounded=0;orthogonalLoop=1;jettySize=auto;html=1;strokeColor=default;align=center;verticalAlign=middle;fontFamily=Architects Daughter;fontSource=https%3A%2F%2Ffonts.googleapis.com%2Fcss%3Ffamily%3DArchitects%2BDaughter;fontSize=11;fontColor=default;labelBackgroundColor=default;endArrow=classicThin;endFill=1;exitX=0.5;exitY=1;exitDx=0;exitDy=0;exitPerimeter=0;" edge="1" parent="Uu9BYE0EDP3QgABRB0VM-43" source="Uu9BYE0EDP3QgABRB0VM-44" target="Uu9BYE0EDP3QgABRB0VM-59">
          <mxGeometry relative="1" as="geometry">
            <Array as="points">
              <mxPoint x="210" y="80" />
              <mxPoint x="390" y="80" />
              <mxPoint x="390" y="296" />
            </Array>
          </mxGeometry>
        </mxCell>
        <mxCell id="Uu9BYE0EDP3QgABRB0VM-83" value="" style="group" vertex="1" connectable="0" parent="1">
          <mxGeometry x="130" y="860" width="420" height="350" as="geometry" />
        </mxCell>
        <mxCell id="Uu9BYE0EDP3QgABRB0VM-84" value="&lt;font style=&quot;font-size: 20px;&quot;&gt;p4pa-auth&lt;/font&gt;" style="aspect=fixed;sketch=0;html=1;dashed=0;whitespace=wrap;verticalLabelPosition=top;verticalAlign=bottom;fillColor=#2875E2;strokeColor=#ffffff;points=[[0.005,0.63,0],[0.1,0.2,0],[0.9,0.2,0],[0.5,0,0],[0.995,0.63,0],[0.72,0.99,0],[0.5,1,0],[0.28,0.99,0]];shape=mxgraph.kubernetes.icon2;prIcon=svc;align=center;fontFamily=Architects Daughter;fontSource=https%3A%2F%2Ffonts.googleapis.com%2Fcss%3Ffamily%3DArchitects%2BDaughter;fontSize=15;fontColor=default;labelBackgroundColor=default;fontStyle=1;labelPosition=center;" vertex="1" parent="Uu9BYE0EDP3QgABRB0VM-83">
          <mxGeometry x="185" width="50" height="48" as="geometry" />
        </mxCell>
        <mxCell id="Uu9BYE0EDP3QgABRB0VM-85" value="p4pa-auth" style="group;fontFamily=Architects Daughter;fontSource=https%3A%2F%2Ffonts.googleapis.com%2Fcss%3Ffamily%3DArchitects%2BDaughter;fontSize=16;labelPosition=center;verticalLabelPosition=top;align=center;verticalAlign=bottom;fontStyle=0;spacingBottom=-15;" vertex="1" connectable="0" parent="Uu9BYE0EDP3QgABRB0VM-83">
          <mxGeometry y="90" width="420" height="260" as="geometry" />
        </mxCell>
        <mxCell id="Uu9BYE0EDP3QgABRB0VM-86" value="" style="rounded=0;whiteSpace=wrap;html=1;strokeColor=default;align=center;verticalAlign=top;fontFamily=Architects Daughter;fontSource=https%3A%2F%2Ffonts.googleapis.com%2Fcss%3Ffamily%3DArchitects%2BDaughter;fontSize=15;fontColor=default;labelBackgroundColor=default;fillColor=default;dashed=1;" vertex="1" parent="Uu9BYE0EDP3QgABRB0VM-85">
          <mxGeometry x="20" y="20" width="400" height="240" as="geometry" />
        </mxCell>
        <mxCell id="Uu9BYE0EDP3QgABRB0VM-87" value="" style="aspect=fixed;sketch=0;html=1;dashed=0;whitespace=wrap;verticalLabelPosition=bottom;verticalAlign=top;fillColor=#2875E2;strokeColor=#ffffff;points=[[0.005,0.63,0],[0.1,0.2,0],[0.9,0.2,0],[0.5,0,0],[0.995,0.63,0],[0.72,0.99,0],[0.5,1,0],[0.28,0.99,0]];shape=mxgraph.kubernetes.icon2;kubernetesLabel=1;prIcon=deploy;align=center;fontFamily=Architects Daughter;fontSource=https%3A%2F%2Ffonts.googleapis.com%2Fcss%3Ffamily%3DArchitects%2BDaughter;fontSize=15;fontColor=default;labelBackgroundColor=default;" vertex="1" parent="Uu9BYE0EDP3QgABRB0VM-85">
          <mxGeometry width="50" height="48" as="geometry" />
        </mxCell>
        <mxCell id="Uu9BYE0EDP3QgABRB0VM-88" value="" style="group" vertex="1" connectable="0" parent="Uu9BYE0EDP3QgABRB0VM-85">
          <mxGeometry x="90" y="30" width="280" height="220" as="geometry" />
        </mxCell>
        <mxCell id="Uu9BYE0EDP3QgABRB0VM-89" value="" style="rounded=0;whiteSpace=wrap;html=1;strokeColor=default;align=center;verticalAlign=top;fontFamily=Architects Daughter;fontSource=https%3A%2F%2Ffonts.googleapis.com%2Fcss%3Ffamily%3DArchitects%2BDaughter;fontSize=15;fontColor=default;labelBackgroundColor=default;fillColor=default;sketch=1;curveFitting=1;jiggle=2;dashed=1;dashPattern=12 12;" vertex="1" parent="Uu9BYE0EDP3QgABRB0VM-88">
          <mxGeometry y="20" width="280" height="200" as="geometry" />
        </mxCell>
        <mxCell id="Uu9BYE0EDP3QgABRB0VM-90" value="" style="shape=cube;whiteSpace=wrap;html=1;boundedLbl=1;backgroundOutline=1;darkOpacity=0.05;darkOpacity2=0.1;strokeColor=default;align=center;verticalAlign=top;fontFamily=Architects Daughter;fontSource=https%3A%2F%2Ffonts.googleapis.com%2Fcss%3Ffamily%3DArchitects%2BDaughter;fontSize=15;fontColor=default;labelBackgroundColor=default;fillColor=default;" vertex="1" parent="Uu9BYE0EDP3QgABRB0VM-88">
          <mxGeometry x="40" y="80" width="120" height="120" as="geometry" />
        </mxCell>
        <mxCell id="Uu9BYE0EDP3QgABRB0VM-92" value="" style="aspect=fixed;sketch=0;html=1;dashed=0;whitespace=wrap;verticalLabelPosition=bottom;verticalAlign=top;fillColor=#2875E2;strokeColor=#ffffff;points=[[0.005,0.63,0],[0.1,0.2,0],[0.9,0.2,0],[0.5,0,0],[0.995,0.63,0],[0.72,0.99,0],[0.5,1,0],[0.28,0.99,0]];shape=mxgraph.kubernetes.icon2;kubernetesLabel=1;prIcon=pod;align=center;fontFamily=Architects Daughter;fontSource=https%3A%2F%2Ffonts.googleapis.com%2Fcss%3Ffamily%3DArchitects%2BDaughter;fontSize=15;fontColor=default;labelBackgroundColor=default;" vertex="1" parent="Uu9BYE0EDP3QgABRB0VM-88">
          <mxGeometry x="20" y="50" width="50" height="48" as="geometry" />
        </mxCell>
        <mxCell id="Uu9BYE0EDP3QgABRB0VM-93" value="" style="shape=image;verticalLabelPosition=bottom;labelBackgroundColor=default;verticalAlign=top;aspect=fixed;imageAspect=0;image=https://upload.wikimedia.org/wikipedia/commons/thumb/7/79/Spring_Boot.svg/120px-Spring_Boot.svg.png;" vertex="1" parent="Uu9BYE0EDP3QgABRB0VM-88">
          <mxGeometry x="75" y="115" width="70" height="70" as="geometry" />
        </mxCell>
        <mxCell id="Uu9BYE0EDP3QgABRB0VM-94" value="&lt;font style=&quot;font-size: 15px;&quot;&gt;Horizontal Pod&lt;br&gt;&lt;/font&gt;&lt;div&gt;&lt;font style=&quot;font-size: 15px;&quot;&gt;&amp;nbsp; &amp;nbsp; &amp;nbsp; &amp;nbsp; &amp;nbsp; &amp;nbsp; Autoscale&lt;/font&gt;&lt;/div&gt;" style="aspect=fixed;sketch=0;html=1;dashed=0;whitespace=wrap;verticalLabelPosition=bottom;verticalAlign=top;fillColor=#2875E2;strokeColor=#ffffff;points=[[0.005,0.63,0],[0.1,0.2,0],[0.9,0.2,0],[0.5,0,0],[0.995,0.63,0],[0.72,0.99,0],[0.5,1,0],[0.28,0.99,0]];shape=mxgraph.kubernetes.icon2;prIcon=hpa;align=left;fontFamily=Architects Daughter;fontSource=https%3A%2F%2Ffonts.googleapis.com%2Fcss%3Ffamily%3DArchitects%2BDaughter;fontSize=12;fontColor=default;labelBackgroundColor=default;labelPosition=right;spacingTop=-14;spacingLeft=-5;" vertex="1" parent="Uu9BYE0EDP3QgABRB0VM-88">
          <mxGeometry x="104.37" width="31.26" height="30" as="geometry" />
        </mxCell>
        <mxCell id="Uu9BYE0EDP3QgABRB0VM-95" style="edgeStyle=orthogonalEdgeStyle;rounded=0;orthogonalLoop=1;jettySize=auto;html=1;entryX=0.5;entryY=0;entryDx=0;entryDy=0;fontFamily=Architects Daughter;fontSource=https%3A%2F%2Ffonts.googleapis.com%2Fcss%3Ffamily%3DArchitects%2BDaughter;fontSize=11;fontColor=default;labelBackgroundColor=default;strokeColor=default;align=center;verticalAlign=middle;endArrow=classicThin;endFill=1;curved=1;entryPerimeter=0;" edge="1" parent="Uu9BYE0EDP3QgABRB0VM-88" target="Uu9BYE0EDP3QgABRB0VM-99">
          <mxGeometry relative="1" as="geometry">
            <mxPoint x="120" y="30" as="sourcePoint" />
            <mxPoint x="195" y="135" as="targetPoint" />
            <Array as="points">
              <mxPoint x="120" y="60" />
              <mxPoint x="205" y="60" />
            </Array>
          </mxGeometry>
        </mxCell>
        <mxCell id="Uu9BYE0EDP3QgABRB0VM-96" value="&lt;font style=&quot;font-size: 15px;&quot;&gt;metrics&lt;/font&gt;" style="rounded=0;orthogonalLoop=1;jettySize=auto;html=1;exitX=0.5;exitY=1;exitDx=0;exitDy=0;exitPerimeter=0;entryX=0.9;entryY=0.2;entryDx=0;entryDy=0;entryPerimeter=0;fontFamily=Architects Daughter;fontSource=https%3A%2F%2Ffonts.googleapis.com%2Fcss%3Ffamily%3DArchitects%2BDaughter;fontSize=11;fontColor=default;labelBackgroundColor=default;edgeStyle=orthogonalEdgeStyle;curved=1;endArrow=classicThin;endFill=1;" edge="1" parent="Uu9BYE0EDP3QgABRB0VM-88" source="Uu9BYE0EDP3QgABRB0VM-94" target="Uu9BYE0EDP3QgABRB0VM-92">
          <mxGeometry x="-0.5272" relative="1" as="geometry">
            <Array as="points">
              <mxPoint x="120" y="60" />
            </Array>
            <mxPoint as="offset" />
          </mxGeometry>
        </mxCell>
        <mxCell id="Uu9BYE0EDP3QgABRB0VM-97" value="" style="group" vertex="1" connectable="0" parent="Uu9BYE0EDP3QgABRB0VM-88">
          <mxGeometry x="170" y="152" width="70" height="48" as="geometry" />
        </mxCell>
        <mxCell id="Uu9BYE0EDP3QgABRB0VM-98" value="" style="aspect=fixed;sketch=0;html=1;dashed=0;whitespace=wrap;verticalLabelPosition=bottom;verticalAlign=top;fillColor=#2875E2;strokeColor=#ffffff;points=[[0.005,0.63,0],[0.1,0.2,0],[0.9,0.2,0],[0.5,0,0],[0.995,0.63,0],[0.72,0.99,0],[0.5,1,0],[0.28,0.99,0]];shape=mxgraph.kubernetes.icon2;kubernetesLabel=1;prIcon=pod;align=center;fontFamily=Architects Daughter;fontSource=https%3A%2F%2Ffonts.googleapis.com%2Fcss%3Ffamily%3DArchitects%2BDaughter;fontSize=11;fontColor=default;labelBackgroundColor=default;" vertex="1" parent="Uu9BYE0EDP3QgABRB0VM-97">
          <mxGeometry x="20" width="50" height="48" as="geometry" />
        </mxCell>
        <mxCell id="Uu9BYE0EDP3QgABRB0VM-99" value="" style="aspect=fixed;sketch=0;html=1;dashed=0;whitespace=wrap;verticalLabelPosition=bottom;verticalAlign=top;fillColor=#2875E2;strokeColor=#ffffff;points=[[0.005,0.63,0],[0.1,0.2,0],[0.9,0.2,0],[0.5,0,0],[0.995,0.63,0],[0.72,0.99,0],[0.5,1,0],[0.28,0.99,0]];shape=mxgraph.kubernetes.icon2;kubernetesLabel=1;prIcon=pod;align=center;fontFamily=Architects Daughter;fontSource=https%3A%2F%2Ffonts.googleapis.com%2Fcss%3Ffamily%3DArchitects%2BDaughter;fontSize=11;fontColor=default;labelBackgroundColor=default;" vertex="1" parent="Uu9BYE0EDP3QgABRB0VM-97">
          <mxGeometry x="10" width="50" height="48" as="geometry" />
        </mxCell>
        <mxCell id="Uu9BYE0EDP3QgABRB0VM-100" value="" style="aspect=fixed;sketch=0;html=1;dashed=0;whitespace=wrap;verticalLabelPosition=bottom;verticalAlign=top;fillColor=#2875E2;strokeColor=#ffffff;points=[[0.005,0.63,0],[0.1,0.2,0],[0.9,0.2,0],[0.5,0,0],[0.995,0.63,0],[0.72,0.99,0],[0.5,1,0],[0.28,0.99,0]];shape=mxgraph.kubernetes.icon2;kubernetesLabel=1;prIcon=pod;align=center;fontFamily=Architects Daughter;fontSource=https%3A%2F%2Ffonts.googleapis.com%2Fcss%3Ffamily%3DArchitects%2BDaughter;fontSize=11;fontColor=default;labelBackgroundColor=default;" vertex="1" parent="Uu9BYE0EDP3QgABRB0VM-97">
          <mxGeometry width="50" height="48" as="geometry" />
        </mxCell>
        <mxCell id="Uu9BYE0EDP3QgABRB0VM-101" style="edgeStyle=orthogonalEdgeStyle;shape=connector;curved=1;rounded=0;orthogonalLoop=1;jettySize=auto;html=1;strokeColor=default;align=center;verticalAlign=middle;fontFamily=Architects Daughter;fontSource=https%3A%2F%2Ffonts.googleapis.com%2Fcss%3Ffamily%3DArchitects%2BDaughter;fontSize=11;fontColor=default;labelBackgroundColor=default;endArrow=classicThin;endFill=1;exitX=0.5;exitY=1;exitDx=0;exitDy=0;exitPerimeter=0;" edge="1" parent="Uu9BYE0EDP3QgABRB0VM-83" source="Uu9BYE0EDP3QgABRB0VM-84" target="Uu9BYE0EDP3QgABRB0VM-92">
          <mxGeometry relative="1" as="geometry">
            <Array as="points">
              <mxPoint x="210" y="80" />
              <mxPoint x="60" y="80" />
              <mxPoint x="60" y="194" />
            </Array>
          </mxGeometry>
        </mxCell>
        <mxCell id="Uu9BYE0EDP3QgABRB0VM-102" style="edgeStyle=orthogonalEdgeStyle;shape=connector;curved=1;rounded=0;orthogonalLoop=1;jettySize=auto;html=1;strokeColor=default;align=center;verticalAlign=middle;fontFamily=Architects Daughter;fontSource=https%3A%2F%2Ffonts.googleapis.com%2Fcss%3Ffamily%3DArchitects%2BDaughter;fontSize=11;fontColor=default;labelBackgroundColor=default;endArrow=classicThin;endFill=1;exitX=0.5;exitY=1;exitDx=0;exitDy=0;exitPerimeter=0;" edge="1" parent="Uu9BYE0EDP3QgABRB0VM-83" source="Uu9BYE0EDP3QgABRB0VM-84" target="Uu9BYE0EDP3QgABRB0VM-99">
          <mxGeometry relative="1" as="geometry">
            <Array as="points">
              <mxPoint x="210" y="80" />
              <mxPoint x="390" y="80" />
              <mxPoint x="390" y="296" />
            </Array>
          </mxGeometry>
        </mxCell>
        <mxCell id="Uu9BYE0EDP3QgABRB0VM-103" value="" style="group" vertex="1" connectable="0" parent="1">
          <mxGeometry x="580" y="860" width="420" height="350" as="geometry" />
        </mxCell>
        <mxCell id="Uu9BYE0EDP3QgABRB0VM-104" value="&lt;font style=&quot;font-size: 20px;&quot;&gt;p4pa-io-notification&lt;/font&gt;" style="aspect=fixed;sketch=0;html=1;dashed=0;whitespace=wrap;verticalLabelPosition=top;verticalAlign=bottom;fillColor=#2875E2;strokeColor=#ffffff;points=[[0.005,0.63,0],[0.1,0.2,0],[0.9,0.2,0],[0.5,0,0],[0.995,0.63,0],[0.72,0.99,0],[0.5,1,0],[0.28,0.99,0]];shape=mxgraph.kubernetes.icon2;prIcon=svc;align=center;fontFamily=Architects Daughter;fontSource=https%3A%2F%2Ffonts.googleapis.com%2Fcss%3Ffamily%3DArchitects%2BDaughter;fontSize=15;fontColor=default;labelBackgroundColor=default;fontStyle=1;labelPosition=center;" vertex="1" parent="Uu9BYE0EDP3QgABRB0VM-103">
          <mxGeometry x="185" width="50" height="48" as="geometry" />
        </mxCell>
        <mxCell id="Uu9BYE0EDP3QgABRB0VM-105" value="p4pa-io-notification" style="group;fontFamily=Architects Daughter;fontSource=https%3A%2F%2Ffonts.googleapis.com%2Fcss%3Ffamily%3DArchitects%2BDaughter;fontSize=16;labelPosition=center;verticalLabelPosition=top;align=center;verticalAlign=bottom;fontStyle=0;spacingBottom=-15;" vertex="1" connectable="0" parent="Uu9BYE0EDP3QgABRB0VM-103">
          <mxGeometry y="90" width="420" height="260" as="geometry" />
        </mxCell>
        <mxCell id="Uu9BYE0EDP3QgABRB0VM-106" value="" style="rounded=0;whiteSpace=wrap;html=1;strokeColor=default;align=center;verticalAlign=top;fontFamily=Architects Daughter;fontSource=https%3A%2F%2Ffonts.googleapis.com%2Fcss%3Ffamily%3DArchitects%2BDaughter;fontSize=15;fontColor=default;labelBackgroundColor=default;fillColor=default;dashed=1;" vertex="1" parent="Uu9BYE0EDP3QgABRB0VM-105">
          <mxGeometry x="20" y="20" width="400" height="240" as="geometry" />
        </mxCell>
        <mxCell id="Uu9BYE0EDP3QgABRB0VM-107" value="" style="aspect=fixed;sketch=0;html=1;dashed=0;whitespace=wrap;verticalLabelPosition=bottom;verticalAlign=top;fillColor=#2875E2;strokeColor=#ffffff;points=[[0.005,0.63,0],[0.1,0.2,0],[0.9,0.2,0],[0.5,0,0],[0.995,0.63,0],[0.72,0.99,0],[0.5,1,0],[0.28,0.99,0]];shape=mxgraph.kubernetes.icon2;kubernetesLabel=1;prIcon=deploy;align=center;fontFamily=Architects Daughter;fontSource=https%3A%2F%2Ffonts.googleapis.com%2Fcss%3Ffamily%3DArchitects%2BDaughter;fontSize=15;fontColor=default;labelBackgroundColor=default;" vertex="1" parent="Uu9BYE0EDP3QgABRB0VM-105">
          <mxGeometry width="50" height="48" as="geometry" />
        </mxCell>
        <mxCell id="Uu9BYE0EDP3QgABRB0VM-108" value="" style="group" vertex="1" connectable="0" parent="Uu9BYE0EDP3QgABRB0VM-105">
          <mxGeometry x="90" y="30" width="280" height="220" as="geometry" />
        </mxCell>
        <mxCell id="Uu9BYE0EDP3QgABRB0VM-109" value="" style="rounded=0;whiteSpace=wrap;html=1;strokeColor=default;align=center;verticalAlign=top;fontFamily=Architects Daughter;fontSource=https%3A%2F%2Ffonts.googleapis.com%2Fcss%3Ffamily%3DArchitects%2BDaughter;fontSize=15;fontColor=default;labelBackgroundColor=default;fillColor=default;sketch=1;curveFitting=1;jiggle=2;dashed=1;dashPattern=12 12;" vertex="1" parent="Uu9BYE0EDP3QgABRB0VM-108">
          <mxGeometry y="20" width="280" height="200" as="geometry" />
        </mxCell>
        <mxCell id="Uu9BYE0EDP3QgABRB0VM-110" value="" style="shape=cube;whiteSpace=wrap;html=1;boundedLbl=1;backgroundOutline=1;darkOpacity=0.05;darkOpacity2=0.1;strokeColor=default;align=center;verticalAlign=top;fontFamily=Architects Daughter;fontSource=https%3A%2F%2Ffonts.googleapis.com%2Fcss%3Ffamily%3DArchitects%2BDaughter;fontSize=15;fontColor=default;labelBackgroundColor=default;fillColor=default;" vertex="1" parent="Uu9BYE0EDP3QgABRB0VM-108">
          <mxGeometry x="40" y="80" width="120" height="120" as="geometry" />
        </mxCell>
        <mxCell id="Uu9BYE0EDP3QgABRB0VM-111" value="" style="aspect=fixed;sketch=0;html=1;dashed=0;whitespace=wrap;verticalLabelPosition=bottom;verticalAlign=top;fillColor=#2875E2;strokeColor=#ffffff;points=[[0.005,0.63,0],[0.1,0.2,0],[0.9,0.2,0],[0.5,0,0],[0.995,0.63,0],[0.72,0.99,0],[0.5,1,0],[0.28,0.99,0]];shape=mxgraph.kubernetes.icon2;kubernetesLabel=1;prIcon=pod;align=center;fontFamily=Architects Daughter;fontSource=https%3A%2F%2Ffonts.googleapis.com%2Fcss%3Ffamily%3DArchitects%2BDaughter;fontSize=15;fontColor=default;labelBackgroundColor=default;" vertex="1" parent="Uu9BYE0EDP3QgABRB0VM-108">
          <mxGeometry x="20" y="50" width="50" height="48" as="geometry" />
        </mxCell>
        <mxCell id="Uu9BYE0EDP3QgABRB0VM-112" value="" style="shape=image;verticalLabelPosition=bottom;labelBackgroundColor=default;verticalAlign=top;aspect=fixed;imageAspect=0;image=https://upload.wikimedia.org/wikipedia/commons/thumb/7/79/Spring_Boot.svg/120px-Spring_Boot.svg.png;" vertex="1" parent="Uu9BYE0EDP3QgABRB0VM-108">
          <mxGeometry x="75" y="115" width="70" height="70" as="geometry" />
        </mxCell>
        <mxCell id="Uu9BYE0EDP3QgABRB0VM-113" value="&lt;font style=&quot;font-size: 15px;&quot;&gt;Horizontal Pod&lt;br&gt;&lt;/font&gt;&lt;div&gt;&lt;font style=&quot;font-size: 15px;&quot;&gt;&amp;nbsp; &amp;nbsp; &amp;nbsp; &amp;nbsp; &amp;nbsp; &amp;nbsp; Autoscale&lt;/font&gt;&lt;/div&gt;" style="aspect=fixed;sketch=0;html=1;dashed=0;whitespace=wrap;verticalLabelPosition=bottom;verticalAlign=top;fillColor=#2875E2;strokeColor=#ffffff;points=[[0.005,0.63,0],[0.1,0.2,0],[0.9,0.2,0],[0.5,0,0],[0.995,0.63,0],[0.72,0.99,0],[0.5,1,0],[0.28,0.99,0]];shape=mxgraph.kubernetes.icon2;prIcon=hpa;align=left;fontFamily=Architects Daughter;fontSource=https%3A%2F%2Ffonts.googleapis.com%2Fcss%3Ffamily%3DArchitects%2BDaughter;fontSize=12;fontColor=default;labelBackgroundColor=default;labelPosition=right;spacingTop=-14;spacingLeft=-5;" vertex="1" parent="Uu9BYE0EDP3QgABRB0VM-108">
          <mxGeometry x="104.37" width="31.26" height="30" as="geometry" />
        </mxCell>
        <mxCell id="Uu9BYE0EDP3QgABRB0VM-114" style="edgeStyle=orthogonalEdgeStyle;rounded=0;orthogonalLoop=1;jettySize=auto;html=1;entryX=0.5;entryY=0;entryDx=0;entryDy=0;fontFamily=Architects Daughter;fontSource=https%3A%2F%2Ffonts.googleapis.com%2Fcss%3Ffamily%3DArchitects%2BDaughter;fontSize=11;fontColor=default;labelBackgroundColor=default;strokeColor=default;align=center;verticalAlign=middle;endArrow=classicThin;endFill=1;curved=1;entryPerimeter=0;" edge="1" parent="Uu9BYE0EDP3QgABRB0VM-108" target="Uu9BYE0EDP3QgABRB0VM-118">
          <mxGeometry relative="1" as="geometry">
            <mxPoint x="120" y="30" as="sourcePoint" />
            <mxPoint x="195" y="135" as="targetPoint" />
            <Array as="points">
              <mxPoint x="120" y="60" />
              <mxPoint x="205" y="60" />
            </Array>
          </mxGeometry>
        </mxCell>
        <mxCell id="Uu9BYE0EDP3QgABRB0VM-115" value="&lt;font style=&quot;font-size: 15px;&quot;&gt;metrics&lt;/font&gt;" style="rounded=0;orthogonalLoop=1;jettySize=auto;html=1;exitX=0.5;exitY=1;exitDx=0;exitDy=0;exitPerimeter=0;entryX=0.9;entryY=0.2;entryDx=0;entryDy=0;entryPerimeter=0;fontFamily=Architects Daughter;fontSource=https%3A%2F%2Ffonts.googleapis.com%2Fcss%3Ffamily%3DArchitects%2BDaughter;fontSize=11;fontColor=default;labelBackgroundColor=default;edgeStyle=orthogonalEdgeStyle;curved=1;endArrow=classicThin;endFill=1;" edge="1" parent="Uu9BYE0EDP3QgABRB0VM-108" source="Uu9BYE0EDP3QgABRB0VM-113" target="Uu9BYE0EDP3QgABRB0VM-111">
          <mxGeometry x="-0.5272" relative="1" as="geometry">
            <Array as="points">
              <mxPoint x="120" y="60" />
            </Array>
            <mxPoint as="offset" />
          </mxGeometry>
        </mxCell>
        <mxCell id="Uu9BYE0EDP3QgABRB0VM-116" value="" style="group" vertex="1" connectable="0" parent="Uu9BYE0EDP3QgABRB0VM-108">
          <mxGeometry x="170" y="152" width="70" height="48" as="geometry" />
        </mxCell>
        <mxCell id="Uu9BYE0EDP3QgABRB0VM-117" value="" style="aspect=fixed;sketch=0;html=1;dashed=0;whitespace=wrap;verticalLabelPosition=bottom;verticalAlign=top;fillColor=#2875E2;strokeColor=#ffffff;points=[[0.005,0.63,0],[0.1,0.2,0],[0.9,0.2,0],[0.5,0,0],[0.995,0.63,0],[0.72,0.99,0],[0.5,1,0],[0.28,0.99,0]];shape=mxgraph.kubernetes.icon2;kubernetesLabel=1;prIcon=pod;align=center;fontFamily=Architects Daughter;fontSource=https%3A%2F%2Ffonts.googleapis.com%2Fcss%3Ffamily%3DArchitects%2BDaughter;fontSize=11;fontColor=default;labelBackgroundColor=default;" vertex="1" parent="Uu9BYE0EDP3QgABRB0VM-116">
          <mxGeometry x="20" width="50" height="48" as="geometry" />
        </mxCell>
        <mxCell id="Uu9BYE0EDP3QgABRB0VM-118" value="" style="aspect=fixed;sketch=0;html=1;dashed=0;whitespace=wrap;verticalLabelPosition=bottom;verticalAlign=top;fillColor=#2875E2;strokeColor=#ffffff;points=[[0.005,0.63,0],[0.1,0.2,0],[0.9,0.2,0],[0.5,0,0],[0.995,0.63,0],[0.72,0.99,0],[0.5,1,0],[0.28,0.99,0]];shape=mxgraph.kubernetes.icon2;kubernetesLabel=1;prIcon=pod;align=center;fontFamily=Architects Daughter;fontSource=https%3A%2F%2Ffonts.googleapis.com%2Fcss%3Ffamily%3DArchitects%2BDaughter;fontSize=11;fontColor=default;labelBackgroundColor=default;" vertex="1" parent="Uu9BYE0EDP3QgABRB0VM-116">
          <mxGeometry x="10" width="50" height="48" as="geometry" />
        </mxCell>
        <mxCell id="Uu9BYE0EDP3QgABRB0VM-119" value="" style="aspect=fixed;sketch=0;html=1;dashed=0;whitespace=wrap;verticalLabelPosition=bottom;verticalAlign=top;fillColor=#2875E2;strokeColor=#ffffff;points=[[0.005,0.63,0],[0.1,0.2,0],[0.9,0.2,0],[0.5,0,0],[0.995,0.63,0],[0.72,0.99,0],[0.5,1,0],[0.28,0.99,0]];shape=mxgraph.kubernetes.icon2;kubernetesLabel=1;prIcon=pod;align=center;fontFamily=Architects Daughter;fontSource=https%3A%2F%2Ffonts.googleapis.com%2Fcss%3Ffamily%3DArchitects%2BDaughter;fontSize=11;fontColor=default;labelBackgroundColor=default;" vertex="1" parent="Uu9BYE0EDP3QgABRB0VM-116">
          <mxGeometry width="50" height="48" as="geometry" />
        </mxCell>
        <mxCell id="Uu9BYE0EDP3QgABRB0VM-120" style="edgeStyle=orthogonalEdgeStyle;shape=connector;curved=1;rounded=0;orthogonalLoop=1;jettySize=auto;html=1;strokeColor=default;align=center;verticalAlign=middle;fontFamily=Architects Daughter;fontSource=https%3A%2F%2Ffonts.googleapis.com%2Fcss%3Ffamily%3DArchitects%2BDaughter;fontSize=11;fontColor=default;labelBackgroundColor=default;endArrow=classicThin;endFill=1;exitX=0.5;exitY=1;exitDx=0;exitDy=0;exitPerimeter=0;" edge="1" parent="Uu9BYE0EDP3QgABRB0VM-103" source="Uu9BYE0EDP3QgABRB0VM-104" target="Uu9BYE0EDP3QgABRB0VM-111">
          <mxGeometry relative="1" as="geometry">
            <Array as="points">
              <mxPoint x="210" y="80" />
              <mxPoint x="60" y="80" />
              <mxPoint x="60" y="194" />
            </Array>
          </mxGeometry>
        </mxCell>
        <mxCell id="Uu9BYE0EDP3QgABRB0VM-121" style="edgeStyle=orthogonalEdgeStyle;shape=connector;curved=1;rounded=0;orthogonalLoop=1;jettySize=auto;html=1;strokeColor=default;align=center;verticalAlign=middle;fontFamily=Architects Daughter;fontSource=https%3A%2F%2Ffonts.googleapis.com%2Fcss%3Ffamily%3DArchitects%2BDaughter;fontSize=11;fontColor=default;labelBackgroundColor=default;endArrow=classicThin;endFill=1;exitX=0.5;exitY=1;exitDx=0;exitDy=0;exitPerimeter=0;" edge="1" parent="Uu9BYE0EDP3QgABRB0VM-103" source="Uu9BYE0EDP3QgABRB0VM-104" target="Uu9BYE0EDP3QgABRB0VM-118">
          <mxGeometry relative="1" as="geometry">
            <Array as="points">
              <mxPoint x="210" y="80" />
              <mxPoint x="390" y="80" />
              <mxPoint x="390" y="296" />
            </Array>
          </mxGeometry>
        </mxCell>
        <mxCell id="Uu9BYE0EDP3QgABRB0VM-151" value="" style="group" vertex="1" connectable="0" parent="1">
          <mxGeometry x="610" y="1270" width="380" height="230" as="geometry" />
        </mxCell>
        <mxCell id="Uu9BYE0EDP3QgABRB0VM-150" value="&lt;b&gt;&lt;font style=&quot;font-size: 20px;&quot;&gt;Batch MyPay&lt;/font&gt;&lt;/b&gt;" style="rounded=0;whiteSpace=wrap;html=1;strokeColor=default;align=center;verticalAlign=top;fontFamily=Architects Daughter;fontSource=https%3A%2F%2Ffonts.googleapis.com%2Fcss%3Ffamily%3DArchitects%2BDaughter;fontSize=15;fontColor=default;labelBackgroundColor=default;fillColor=default;sketch=1;curveFitting=1;jiggle=2;dashed=1;dashPattern=8 8;" vertex="1" parent="Uu9BYE0EDP3QgABRB0VM-151">
          <mxGeometry width="380" height="230" as="geometry" />
        </mxCell>
        <mxCell id="Uu9BYE0EDP3QgABRB0VM-145" value="" style="group" vertex="1" connectable="0" parent="Uu9BYE0EDP3QgABRB0VM-151">
          <mxGeometry x="30" y="20" width="220" height="190" as="geometry" />
        </mxCell>
        <mxCell id="Uu9BYE0EDP3QgABRB0VM-127" value="" style="rounded=0;whiteSpace=wrap;html=1;strokeColor=default;align=center;verticalAlign=top;fontFamily=Architects Daughter;fontSource=https%3A%2F%2Ffonts.googleapis.com%2Fcss%3Ffamily%3DArchitects%2BDaughter;fontSize=15;fontColor=default;labelBackgroundColor=default;fillColor=default;dashed=1;" vertex="1" parent="Uu9BYE0EDP3QgABRB0VM-145">
          <mxGeometry x="20" y="20" width="200" height="170" as="geometry" />
        </mxCell>
        <mxCell id="Uu9BYE0EDP3QgABRB0VM-128" value="" style="aspect=fixed;sketch=0;html=1;dashed=0;whitespace=wrap;verticalLabelPosition=bottom;verticalAlign=top;fillColor=#2875E2;strokeColor=#ffffff;points=[[0.005,0.63,0],[0.1,0.2,0],[0.9,0.2,0],[0.5,0,0],[0.995,0.63,0],[0.72,0.99,0],[0.5,1,0],[0.28,0.99,0]];shape=mxgraph.kubernetes.icon2;kubernetesLabel=1;prIcon=deploy;align=center;fontFamily=Architects Daughter;fontSource=https%3A%2F%2Ffonts.googleapis.com%2Fcss%3Ffamily%3DArchitects%2BDaughter;fontSize=15;fontColor=default;labelBackgroundColor=default;" vertex="1" parent="Uu9BYE0EDP3QgABRB0VM-145">
          <mxGeometry width="50" height="48" as="geometry" />
        </mxCell>
        <mxCell id="Uu9BYE0EDP3QgABRB0VM-144" value="" style="group" vertex="1" connectable="0" parent="Uu9BYE0EDP3QgABRB0VM-145">
          <mxGeometry x="50" y="30" width="140" height="150" as="geometry" />
        </mxCell>
        <mxCell id="Uu9BYE0EDP3QgABRB0VM-131" value="" style="shape=cube;whiteSpace=wrap;html=1;boundedLbl=1;backgroundOutline=1;darkOpacity=0.05;darkOpacity2=0.1;strokeColor=default;align=center;verticalAlign=top;fontFamily=Architects Daughter;fontSource=https%3A%2F%2Ffonts.googleapis.com%2Fcss%3Ffamily%3DArchitects%2BDaughter;fontSize=15;fontColor=default;labelBackgroundColor=default;fillColor=default;" vertex="1" parent="Uu9BYE0EDP3QgABRB0VM-144">
          <mxGeometry x="20" y="30" width="120" height="120" as="geometry" />
        </mxCell>
        <mxCell id="Uu9BYE0EDP3QgABRB0VM-132" value="&lt;font style=&quot;font-size: 15px;&quot;&gt;/shared&lt;/font&gt;" style="aspect=fixed;sketch=0;html=1;dashed=0;whitespace=wrap;verticalLabelPosition=middle;verticalAlign=middle;fillColor=#2875E2;strokeColor=#ffffff;points=[[0.005,0.63,0],[0.1,0.2,0],[0.9,0.2,0],[0.5,0,0],[0.995,0.63,0],[0.72,0.99,0],[0.5,1,0],[0.28,0.99,0]];shape=mxgraph.kubernetes.icon2;prIcon=vol;align=left;fontFamily=Architects Daughter;fontSource=https%3A%2F%2Ffonts.googleapis.com%2Fcss%3Ffamily%3DArchitects%2BDaughter;fontSize=12;fontColor=default;labelBackgroundColor=default;labelPosition=right;spacingTop=0;spacingBottom=-11;" vertex="1" parent="Uu9BYE0EDP3QgABRB0VM-144">
          <mxGeometry x="40" y="120" width="31.25" height="30" as="geometry" />
        </mxCell>
        <mxCell id="Uu9BYE0EDP3QgABRB0VM-133" value="" style="aspect=fixed;sketch=0;html=1;dashed=0;whitespace=wrap;verticalLabelPosition=bottom;verticalAlign=top;fillColor=#2875E2;strokeColor=#ffffff;points=[[0.005,0.63,0],[0.1,0.2,0],[0.9,0.2,0],[0.5,0,0],[0.995,0.63,0],[0.72,0.99,0],[0.5,1,0],[0.28,0.99,0]];shape=mxgraph.kubernetes.icon2;kubernetesLabel=1;prIcon=pod;align=center;fontFamily=Architects Daughter;fontSource=https%3A%2F%2Ffonts.googleapis.com%2Fcss%3Ffamily%3DArchitects%2BDaughter;fontSize=15;fontColor=default;labelBackgroundColor=default;" vertex="1" parent="Uu9BYE0EDP3QgABRB0VM-144">
          <mxGeometry width="50" height="48" as="geometry" />
        </mxCell>
        <mxCell id="Uu9BYE0EDP3QgABRB0VM-134" value="" style="shape=image;verticalLabelPosition=bottom;labelBackgroundColor=default;verticalAlign=top;aspect=fixed;imageAspect=0;image=https://upload.wikimedia.org/wikipedia/commons/thumb/7/79/Spring_Boot.svg/120px-Spring_Boot.svg.png;" vertex="1" parent="Uu9BYE0EDP3QgABRB0VM-144">
          <mxGeometry x="60" y="55" width="70" height="70" as="geometry" />
        </mxCell>
        <mxCell id="Uu9BYE0EDP3QgABRB0VM-149" value="" style="group" vertex="1" connectable="0" parent="Uu9BYE0EDP3QgABRB0VM-151">
          <mxGeometry x="260" y="160" width="70" height="48" as="geometry" />
        </mxCell>
        <mxCell id="Uu9BYE0EDP3QgABRB0VM-146" value="" style="aspect=fixed;sketch=0;html=1;dashed=0;whitespace=wrap;verticalLabelPosition=bottom;verticalAlign=top;fillColor=#2875E2;strokeColor=#ffffff;points=[[0.005,0.63,0],[0.1,0.2,0],[0.9,0.2,0],[0.5,0,0],[0.995,0.63,0],[0.72,0.99,0],[0.5,1,0],[0.28,0.99,0]];shape=mxgraph.kubernetes.icon2;kubernetesLabel=1;prIcon=deploy;align=center;fontFamily=Architects Daughter;fontSource=https%3A%2F%2Ffonts.googleapis.com%2Fcss%3Ffamily%3DArchitects%2BDaughter;fontSize=15;fontColor=default;labelBackgroundColor=default;" vertex="1" parent="Uu9BYE0EDP3QgABRB0VM-149">
          <mxGeometry x="20" width="50" height="48" as="geometry" />
        </mxCell>
        <mxCell id="Uu9BYE0EDP3QgABRB0VM-147" value="" style="aspect=fixed;sketch=0;html=1;dashed=0;whitespace=wrap;verticalLabelPosition=bottom;verticalAlign=top;fillColor=#2875E2;strokeColor=#ffffff;points=[[0.005,0.63,0],[0.1,0.2,0],[0.9,0.2,0],[0.5,0,0],[0.995,0.63,0],[0.72,0.99,0],[0.5,1,0],[0.28,0.99,0]];shape=mxgraph.kubernetes.icon2;kubernetesLabel=1;prIcon=deploy;align=center;fontFamily=Architects Daughter;fontSource=https%3A%2F%2Ffonts.googleapis.com%2Fcss%3Ffamily%3DArchitects%2BDaughter;fontSize=15;fontColor=default;labelBackgroundColor=default;" vertex="1" parent="Uu9BYE0EDP3QgABRB0VM-149">
          <mxGeometry x="10" width="50" height="48" as="geometry" />
        </mxCell>
        <mxCell id="Uu9BYE0EDP3QgABRB0VM-148" value="" style="aspect=fixed;sketch=0;html=1;dashed=0;whitespace=wrap;verticalLabelPosition=bottom;verticalAlign=top;fillColor=#2875E2;strokeColor=#ffffff;points=[[0.005,0.63,0],[0.1,0.2,0],[0.9,0.2,0],[0.5,0,0],[0.995,0.63,0],[0.72,0.99,0],[0.5,1,0],[0.28,0.99,0]];shape=mxgraph.kubernetes.icon2;kubernetesLabel=1;prIcon=deploy;align=center;fontFamily=Architects Daughter;fontSource=https%3A%2F%2Ffonts.googleapis.com%2Fcss%3Ffamily%3DArchitects%2BDaughter;fontSize=15;fontColor=default;labelBackgroundColor=default;" vertex="1" parent="Uu9BYE0EDP3QgABRB0VM-149">
          <mxGeometry width="50" height="48" as="geometry" />
        </mxCell>
        <mxCell id="Uu9BYE0EDP3QgABRB0VM-152" value="" style="group" vertex="1" connectable="0" parent="1">
          <mxGeometry x="150" y="1270" width="380" height="230" as="geometry" />
        </mxCell>
        <mxCell id="Uu9BYE0EDP3QgABRB0VM-153" value="&lt;b&gt;&lt;font style=&quot;font-size: 20px;&quot;&gt;Batch MyPivot&lt;/font&gt;&lt;/b&gt;" style="rounded=0;whiteSpace=wrap;html=1;strokeColor=default;align=center;verticalAlign=top;fontFamily=Architects Daughter;fontSource=https%3A%2F%2Ffonts.googleapis.com%2Fcss%3Ffamily%3DArchitects%2BDaughter;fontSize=15;fontColor=default;labelBackgroundColor=default;fillColor=default;sketch=1;curveFitting=1;jiggle=2;dashed=1;dashPattern=8 8;" vertex="1" parent="Uu9BYE0EDP3QgABRB0VM-152">
          <mxGeometry width="380" height="230" as="geometry" />
        </mxCell>
        <mxCell id="Uu9BYE0EDP3QgABRB0VM-154" value="" style="group" vertex="1" connectable="0" parent="Uu9BYE0EDP3QgABRB0VM-152">
          <mxGeometry x="30" y="20" width="220" height="190" as="geometry" />
        </mxCell>
        <mxCell id="Uu9BYE0EDP3QgABRB0VM-155" value="" style="rounded=0;whiteSpace=wrap;html=1;strokeColor=default;align=center;verticalAlign=top;fontFamily=Architects Daughter;fontSource=https%3A%2F%2Ffonts.googleapis.com%2Fcss%3Ffamily%3DArchitects%2BDaughter;fontSize=15;fontColor=default;labelBackgroundColor=default;fillColor=default;dashed=1;" vertex="1" parent="Uu9BYE0EDP3QgABRB0VM-154">
          <mxGeometry x="20" y="20" width="200" height="170" as="geometry" />
        </mxCell>
        <mxCell id="Uu9BYE0EDP3QgABRB0VM-156" value="" style="aspect=fixed;sketch=0;html=1;dashed=0;whitespace=wrap;verticalLabelPosition=bottom;verticalAlign=top;fillColor=#2875E2;strokeColor=#ffffff;points=[[0.005,0.63,0],[0.1,0.2,0],[0.9,0.2,0],[0.5,0,0],[0.995,0.63,0],[0.72,0.99,0],[0.5,1,0],[0.28,0.99,0]];shape=mxgraph.kubernetes.icon2;kubernetesLabel=1;prIcon=deploy;align=center;fontFamily=Architects Daughter;fontSource=https%3A%2F%2Ffonts.googleapis.com%2Fcss%3Ffamily%3DArchitects%2BDaughter;fontSize=15;fontColor=default;labelBackgroundColor=default;" vertex="1" parent="Uu9BYE0EDP3QgABRB0VM-154">
          <mxGeometry width="50" height="48" as="geometry" />
        </mxCell>
        <mxCell id="Uu9BYE0EDP3QgABRB0VM-157" value="" style="group" vertex="1" connectable="0" parent="Uu9BYE0EDP3QgABRB0VM-154">
          <mxGeometry x="50" y="30" width="140" height="150" as="geometry" />
        </mxCell>
        <mxCell id="Uu9BYE0EDP3QgABRB0VM-158" value="" style="shape=cube;whiteSpace=wrap;html=1;boundedLbl=1;backgroundOutline=1;darkOpacity=0.05;darkOpacity2=0.1;strokeColor=default;align=center;verticalAlign=top;fontFamily=Architects Daughter;fontSource=https%3A%2F%2Ffonts.googleapis.com%2Fcss%3Ffamily%3DArchitects%2BDaughter;fontSize=15;fontColor=default;labelBackgroundColor=default;fillColor=default;" vertex="1" parent="Uu9BYE0EDP3QgABRB0VM-157">
          <mxGeometry x="20" y="30" width="120" height="120" as="geometry" />
        </mxCell>
        <mxCell id="Uu9BYE0EDP3QgABRB0VM-159" value="&lt;font style=&quot;font-size: 15px;&quot;&gt;/shared&lt;/font&gt;" style="aspect=fixed;sketch=0;html=1;dashed=0;whitespace=wrap;verticalLabelPosition=middle;verticalAlign=middle;fillColor=#2875E2;strokeColor=#ffffff;points=[[0.005,0.63,0],[0.1,0.2,0],[0.9,0.2,0],[0.5,0,0],[0.995,0.63,0],[0.72,0.99,0],[0.5,1,0],[0.28,0.99,0]];shape=mxgraph.kubernetes.icon2;prIcon=vol;align=left;fontFamily=Architects Daughter;fontSource=https%3A%2F%2Ffonts.googleapis.com%2Fcss%3Ffamily%3DArchitects%2BDaughter;fontSize=12;fontColor=default;labelBackgroundColor=default;labelPosition=right;spacingTop=0;spacingBottom=-11;" vertex="1" parent="Uu9BYE0EDP3QgABRB0VM-157">
          <mxGeometry x="40" y="120" width="31.25" height="30" as="geometry" />
        </mxCell>
        <mxCell id="Uu9BYE0EDP3QgABRB0VM-160" value="" style="aspect=fixed;sketch=0;html=1;dashed=0;whitespace=wrap;verticalLabelPosition=bottom;verticalAlign=top;fillColor=#2875E2;strokeColor=#ffffff;points=[[0.005,0.63,0],[0.1,0.2,0],[0.9,0.2,0],[0.5,0,0],[0.995,0.63,0],[0.72,0.99,0],[0.5,1,0],[0.28,0.99,0]];shape=mxgraph.kubernetes.icon2;kubernetesLabel=1;prIcon=pod;align=center;fontFamily=Architects Daughter;fontSource=https%3A%2F%2Ffonts.googleapis.com%2Fcss%3Ffamily%3DArchitects%2BDaughter;fontSize=15;fontColor=default;labelBackgroundColor=default;" vertex="1" parent="Uu9BYE0EDP3QgABRB0VM-157">
          <mxGeometry width="50" height="48" as="geometry" />
        </mxCell>
        <mxCell id="Uu9BYE0EDP3QgABRB0VM-166" value="" style="shape=image;verticalLabelPosition=bottom;labelBackgroundColor=default;verticalAlign=top;aspect=fixed;imageAspect=0;image=https://cdn.icon-icons.com/icons2/2699/PNG/512/talend_logo_icon_169665.png;" vertex="1" parent="Uu9BYE0EDP3QgABRB0VM-157">
          <mxGeometry x="60" y="59" width="62" height="62" as="geometry" />
        </mxCell>
        <mxCell id="Uu9BYE0EDP3QgABRB0VM-162" value="" style="group" vertex="1" connectable="0" parent="Uu9BYE0EDP3QgABRB0VM-152">
          <mxGeometry x="260" y="160" width="70" height="48" as="geometry" />
        </mxCell>
        <mxCell id="Uu9BYE0EDP3QgABRB0VM-163" value="" style="aspect=fixed;sketch=0;html=1;dashed=0;whitespace=wrap;verticalLabelPosition=bottom;verticalAlign=top;fillColor=#2875E2;strokeColor=#ffffff;points=[[0.005,0.63,0],[0.1,0.2,0],[0.9,0.2,0],[0.5,0,0],[0.995,0.63,0],[0.72,0.99,0],[0.5,1,0],[0.28,0.99,0]];shape=mxgraph.kubernetes.icon2;kubernetesLabel=1;prIcon=deploy;align=center;fontFamily=Architects Daughter;fontSource=https%3A%2F%2Ffonts.googleapis.com%2Fcss%3Ffamily%3DArchitects%2BDaughter;fontSize=15;fontColor=default;labelBackgroundColor=default;" vertex="1" parent="Uu9BYE0EDP3QgABRB0VM-162">
          <mxGeometry x="20" width="50" height="48" as="geometry" />
        </mxCell>
        <mxCell id="Uu9BYE0EDP3QgABRB0VM-164" value="" style="aspect=fixed;sketch=0;html=1;dashed=0;whitespace=wrap;verticalLabelPosition=bottom;verticalAlign=top;fillColor=#2875E2;strokeColor=#ffffff;points=[[0.005,0.63,0],[0.1,0.2,0],[0.9,0.2,0],[0.5,0,0],[0.995,0.63,0],[0.72,0.99,0],[0.5,1,0],[0.28,0.99,0]];shape=mxgraph.kubernetes.icon2;kubernetesLabel=1;prIcon=deploy;align=center;fontFamily=Architects Daughter;fontSource=https%3A%2F%2Ffonts.googleapis.com%2Fcss%3Ffamily%3DArchitects%2BDaughter;fontSize=15;fontColor=default;labelBackgroundColor=default;" vertex="1" parent="Uu9BYE0EDP3QgABRB0VM-162">
          <mxGeometry x="10" width="50" height="48" as="geometry" />
        </mxCell>
        <mxCell id="Uu9BYE0EDP3QgABRB0VM-165" value="" style="aspect=fixed;sketch=0;html=1;dashed=0;whitespace=wrap;verticalLabelPosition=bottom;verticalAlign=top;fillColor=#2875E2;strokeColor=#ffffff;points=[[0.005,0.63,0],[0.1,0.2,0],[0.9,0.2,0],[0.5,0,0],[0.995,0.63,0],[0.72,0.99,0],[0.5,1,0],[0.28,0.99,0]];shape=mxgraph.kubernetes.icon2;kubernetesLabel=1;prIcon=deploy;align=center;fontFamily=Architects Daughter;fontSource=https%3A%2F%2Ffonts.googleapis.com%2Fcss%3Ffamily%3DArchitects%2BDaughter;fontSize=15;fontColor=default;labelBackgroundColor=default;" vertex="1" parent="Uu9BYE0EDP3QgABRB0VM-162">
          <mxGeometry width="50" height="48" as="geometry" />
        </mxCell>
        <mxCell id="Uu9BYE0EDP3QgABRB0VM-178" value="&lt;div style=&quot;&quot;&gt;&lt;pre style=&quot;font-size: 15px;&quot;&gt;&lt;font data-font-src=&quot;https://fonts.googleapis.com/css?family=Architects+Daughter&quot; face=&quot;Architects Daughter&quot;&gt;/payhub/(.*)&lt;/font&gt;&lt;/pre&gt;&lt;/div&gt;" style="text;html=1;align=center;verticalAlign=middle;whiteSpace=wrap;rounded=0;fontFamily=Architects Daughter;fontSource=https%3A%2F%2Ffonts.googleapis.com%2Fcss%3Ffamily%3DArchitects%2BDaughter;fontSize=11;fontColor=default;labelBackgroundColor=none;" vertex="1" parent="1">
          <mxGeometry x="177.67000000000002" y="245" width="110" height="30" as="geometry" />
        </mxCell>
        <mxCell id="Uu9BYE0EDP3QgABRB0VM-181" value="&lt;font style=&quot;font-size: 15px;&quot; data-font-src=&quot;https://fonts.googleapis.com/css?family=Architects+Daughter&quot; face=&quot;Architects Daughter&quot;&gt;/payhubpivot/(.*)&lt;/font&gt;" style="text;html=1;align=center;verticalAlign=middle;whiteSpace=wrap;rounded=0;fontFamily=Architects Daughter;fontSource=https%3A%2F%2Ffonts.googleapis.com%2Fcss%3Ffamily%3DArchitects%2BDaughter;fontSize=11;fontColor=default;labelBackgroundColor=default;" vertex="1" parent="1">
          <mxGeometry x="840" y="245" width="140" height="30" as="geometry" />
        </mxCell>
        <mxCell id="Uu9BYE0EDP3QgABRB0VM-182" value="&lt;font style=&quot;font-size: 15px;&quot;&gt;/p4paionotification/(.*)&lt;/font&gt;" style="text;html=1;align=center;verticalAlign=middle;whiteSpace=wrap;rounded=0;fontFamily=Architects Daughter;fontSource=https%3A%2F%2Ffonts.googleapis.com%2Fcss%3Ffamily%3DArchitects%2BDaughter;fontSize=11;fontColor=default;labelBackgroundColor=default;" vertex="1" parent="1">
          <mxGeometry x="573.8299999999999" y="245" width="166.17" height="30" as="geometry" />
        </mxCell>
        <mxCell id="Uu9BYE0EDP3QgABRB0VM-183" value="&lt;font style=&quot;font-size: 15px;&quot;&gt;/p4paauth/(.*)&lt;/font&gt;" style="text;html=1;align=center;verticalAlign=middle;whiteSpace=wrap;rounded=0;fontFamily=Architects Daughter;fontSource=https%3A%2F%2Ffonts.googleapis.com%2Fcss%3Ffamily%3DArchitects%2BDaughter;fontSize=11;fontColor=default;labelBackgroundColor=default;" vertex="1" parent="1">
          <mxGeometry x="360" y="245" width="120" height="30" as="geometry" />
        </mxCell>
        <mxCell id="Uu9BYE0EDP3QgABRB0VM-184" style="edgeStyle=orthogonalEdgeStyle;shape=connector;curved=1;rounded=0;orthogonalLoop=1;jettySize=auto;html=1;exitX=0.25;exitY=1;exitDx=0;exitDy=0;entryX=0.005;entryY=0.63;entryDx=0;entryDy=0;entryPerimeter=0;strokeColor=#3399FF;align=center;verticalAlign=middle;fontFamily=Architects Daughter;fontSource=https%3A%2F%2Ffonts.googleapis.com%2Fcss%3Ffamily%3DArchitects%2BDaughter;fontSize=11;fontColor=default;labelBackgroundColor=default;endArrow=classicThin;endFill=1;strokeWidth=2;" edge="1" parent="1" source="Uu9BYE0EDP3QgABRB0VM-178" target="Uu9BYE0EDP3QgABRB0VM-10">
          <mxGeometry relative="1" as="geometry">
            <Array as="points">
              <mxPoint x="205" y="460" />
            </Array>
          </mxGeometry>
        </mxCell>
        <mxCell id="Uu9BYE0EDP3QgABRB0VM-185" style="edgeStyle=orthogonalEdgeStyle;shape=connector;curved=1;rounded=0;orthogonalLoop=1;jettySize=auto;html=1;exitX=1;exitY=0.5;exitDx=0;exitDy=0;entryX=0.995;entryY=0.63;entryDx=0;entryDy=0;entryPerimeter=0;strokeColor=#3399FF;align=center;verticalAlign=middle;fontFamily=Architects Daughter;fontSource=https%3A%2F%2Ffonts.googleapis.com%2Fcss%3Ffamily%3DArchitects%2BDaughter;fontSize=11;fontColor=default;labelBackgroundColor=default;endArrow=classicThin;endFill=1;strokeWidth=2;" edge="1" parent="1" source="Uu9BYE0EDP3QgABRB0VM-183" target="Uu9BYE0EDP3QgABRB0VM-84">
          <mxGeometry relative="1" as="geometry">
            <Array as="points">
              <mxPoint x="560" y="260" />
              <mxPoint x="560" y="890" />
            </Array>
          </mxGeometry>
        </mxCell>
        <mxCell id="Uu9BYE0EDP3QgABRB0VM-186" style="edgeStyle=orthogonalEdgeStyle;shape=connector;curved=1;rounded=0;orthogonalLoop=1;jettySize=auto;html=1;exitX=0;exitY=1;exitDx=0;exitDy=0;entryX=0.005;entryY=0.63;entryDx=0;entryDy=0;entryPerimeter=0;strokeColor=#3399FF;align=center;verticalAlign=middle;fontFamily=Architects Daughter;fontSource=https%3A%2F%2Ffonts.googleapis.com%2Fcss%3Ffamily%3DArchitects%2BDaughter;fontSize=11;fontColor=default;labelBackgroundColor=default;endArrow=classicThin;endFill=1;strokeWidth=2;" edge="1" parent="1" source="Uu9BYE0EDP3QgABRB0VM-182" target="Uu9BYE0EDP3QgABRB0VM-104">
          <mxGeometry relative="1" as="geometry">
            <Array as="points">
              <mxPoint x="570" y="275" />
              <mxPoint x="570" y="890" />
            </Array>
          </mxGeometry>
        </mxCell>
        <mxCell id="Uu9BYE0EDP3QgABRB0VM-187" style="edgeStyle=orthogonalEdgeStyle;shape=connector;curved=1;rounded=0;orthogonalLoop=1;jettySize=auto;html=1;exitX=0.886;exitY=0.967;exitDx=0;exitDy=0;entryX=0.995;entryY=0.63;entryDx=0;entryDy=0;entryPerimeter=0;strokeColor=#3399FF;align=center;verticalAlign=middle;fontFamily=Architects Daughter;fontSource=https%3A%2F%2Ffonts.googleapis.com%2Fcss%3Ffamily%3DArchitects%2BDaughter;fontSize=11;fontColor=default;labelBackgroundColor=default;endArrow=classicThin;endFill=1;exitPerimeter=0;strokeWidth=2;" edge="1" parent="1" source="Uu9BYE0EDP3QgABRB0VM-181" target="Uu9BYE0EDP3QgABRB0VM-44">
          <mxGeometry relative="1" as="geometry" />
        </mxCell>
        <mxCell id="Uu9BYE0EDP3QgABRB0VM-188" style="edgeStyle=orthogonalEdgeStyle;shape=connector;curved=1;rounded=0;orthogonalLoop=1;jettySize=auto;html=1;exitX=0.135;exitY=1.004;exitDx=0;exitDy=0;entryX=0.005;entryY=0.63;entryDx=0;entryDy=0;entryPerimeter=0;strokeColor=default;align=center;verticalAlign=middle;fontFamily=Architects Daughter;fontSource=https%3A%2F%2Ffonts.googleapis.com%2Fcss%3Ffamily%3DArchitects%2BDaughter;fontSize=11;fontColor=default;labelBackgroundColor=default;endArrow=classicThin;endFill=1;strokeWidth=2;exitPerimeter=0;" edge="1" parent="1" source="Uu9BYE0EDP3QgABRB0VM-18" target="Uu9BYE0EDP3QgABRB0VM-84">
          <mxGeometry relative="1" as="geometry">
            <Array as="points">
              <mxPoint x="204" y="890" />
            </Array>
          </mxGeometry>
        </mxCell>
        <mxCell id="Uu9BYE0EDP3QgABRB0VM-190" style="edgeStyle=orthogonalEdgeStyle;shape=connector;curved=1;rounded=0;orthogonalLoop=1;jettySize=auto;html=1;exitX=0;exitY=1;exitDx=0;exitDy=0;entryX=0.995;entryY=0.63;entryDx=0;entryDy=0;entryPerimeter=0;strokeColor=default;align=center;verticalAlign=middle;fontFamily=Architects Daughter;fontSource=https%3A%2F%2Ffonts.googleapis.com%2Fcss%3Ffamily%3DArchitects%2BDaughter;fontSize=11;fontColor=default;labelBackgroundColor=default;endArrow=classicThin;endFill=1;strokeWidth=2;" edge="1" parent="1" source="Uu9BYE0EDP3QgABRB0VM-49" target="Uu9BYE0EDP3QgABRB0VM-84">
          <mxGeometry relative="1" as="geometry" />
        </mxCell>
        <mxCell id="Uu9BYE0EDP3QgABRB0VM-191" style="edgeStyle=orthogonalEdgeStyle;shape=connector;curved=1;rounded=0;orthogonalLoop=1;jettySize=auto;html=1;exitX=1;exitY=1;exitDx=0;exitDy=0;entryX=0.005;entryY=0.63;entryDx=0;entryDy=0;entryPerimeter=0;strokeColor=default;align=center;verticalAlign=middle;fontFamily=Architects Daughter;fontSource=https%3A%2F%2Ffonts.googleapis.com%2Fcss%3Ffamily%3DArchitects%2BDaughter;fontSize=11;fontColor=default;labelBackgroundColor=default;endArrow=classicThin;endFill=1;strokeWidth=2;" edge="1" parent="1" source="Uu9BYE0EDP3QgABRB0VM-24" target="Uu9BYE0EDP3QgABRB0VM-104">
          <mxGeometry relative="1" as="geometry" />
        </mxCell>
        <mxCell id="Uu9BYE0EDP3QgABRB0VM-193" style="edgeStyle=orthogonalEdgeStyle;shape=connector;curved=1;rounded=0;orthogonalLoop=1;jettySize=auto;html=1;exitX=0;exitY=0;exitDx=0;exitDy=0;entryX=0.005;entryY=0.63;entryDx=0;entryDy=0;entryPerimeter=0;strokeColor=default;align=center;verticalAlign=middle;fontFamily=Architects Daughter;fontSource=https%3A%2F%2Ffonts.googleapis.com%2Fcss%3Ffamily%3DArchitects%2BDaughter;fontSize=11;fontColor=default;labelBackgroundColor=default;endArrow=classicThin;endFill=1;strokeWidth=2;" edge="1" parent="1" source="Uu9BYE0EDP3QgABRB0VM-153" target="Uu9BYE0EDP3QgABRB0VM-10">
          <mxGeometry relative="1" as="geometry">
            <Array as="points">
              <mxPoint x="80" y="1270" />
              <mxPoint x="80" y="890" />
              <mxPoint x="90" y="890" />
              <mxPoint x="90" y="460" />
            </Array>
          </mxGeometry>
        </mxCell>
        <mxCell id="Uu9BYE0EDP3QgABRB0VM-195" style="edgeStyle=orthogonalEdgeStyle;shape=connector;curved=1;rounded=0;orthogonalLoop=1;jettySize=auto;html=1;exitX=0;exitY=0;exitDx=0;exitDy=0;entryX=0.005;entryY=0.63;entryDx=0;entryDy=0;entryPerimeter=0;strokeColor=default;align=center;verticalAlign=middle;fontFamily=Architects Daughter;fontSource=https%3A%2F%2Ffonts.googleapis.com%2Fcss%3Ffamily%3DArchitects%2BDaughter;fontSize=11;fontColor=default;labelBackgroundColor=default;endArrow=classicThin;endFill=1;strokeWidth=2;" edge="1" parent="1" source="Uu9BYE0EDP3QgABRB0VM-153" target="Uu9BYE0EDP3QgABRB0VM-84">
          <mxGeometry relative="1" as="geometry">
            <Array as="points">
              <mxPoint x="120" y="1270" />
              <mxPoint x="120" y="890" />
            </Array>
          </mxGeometry>
        </mxCell>
        <mxCell id="Uu9BYE0EDP3QgABRB0VM-196" style="edgeStyle=orthogonalEdgeStyle;shape=connector;curved=1;rounded=0;orthogonalLoop=1;jettySize=auto;html=1;exitX=0.5;exitY=1;exitDx=0;exitDy=0;exitPerimeter=0;entryX=0.5;entryY=0;entryDx=0;entryDy=0;entryPerimeter=0;strokeColor=#00CCCC;align=center;verticalAlign=middle;fontFamily=Architects Daughter;fontSource=https%3A%2F%2Ffonts.googleapis.com%2Fcss%3Ffamily%3DArchitects%2BDaughter;fontSize=11;fontColor=default;labelBackgroundColor=default;endArrow=classicThin;endFill=1;strokeWidth=2;" edge="1" parent="1" source="Uu9BYE0EDP3QgABRB0VM-159" target="Uu9BYE0EDP3QgABRB0VM-4">
          <mxGeometry relative="1" as="geometry" />
        </mxCell>
        <mxCell id="Uu9BYE0EDP3QgABRB0VM-197" style="edgeStyle=orthogonalEdgeStyle;shape=connector;curved=1;rounded=0;orthogonalLoop=1;jettySize=auto;html=1;exitX=0.5;exitY=1;exitDx=0;exitDy=0;exitPerimeter=0;entryX=0.5;entryY=0;entryDx=0;entryDy=0;entryPerimeter=0;strokeColor=#00CCCC;align=center;verticalAlign=middle;fontFamily=Architects Daughter;fontSource=https%3A%2F%2Ffonts.googleapis.com%2Fcss%3Ffamily%3DArchitects%2BDaughter;fontSize=11;fontColor=default;labelBackgroundColor=default;endArrow=classicThin;endFill=1;strokeWidth=2;" edge="1" parent="1" source="Uu9BYE0EDP3QgABRB0VM-132" target="Uu9BYE0EDP3QgABRB0VM-4">
          <mxGeometry relative="1" as="geometry" />
        </mxCell>
        <mxCell id="Uu9BYE0EDP3QgABRB0VM-198" style="edgeStyle=orthogonalEdgeStyle;shape=connector;curved=1;rounded=0;orthogonalLoop=1;jettySize=auto;html=1;exitX=0.5;exitY=1;exitDx=0;exitDy=0;exitPerimeter=0;entryX=0.5;entryY=0;entryDx=0;entryDy=0;entryPerimeter=0;strokeColor=#00CCCC;align=center;verticalAlign=middle;fontFamily=Architects Daughter;fontSource=https%3A%2F%2Ffonts.googleapis.com%2Fcss%3Ffamily%3DArchitects%2BDaughter;fontSize=11;fontColor=default;labelBackgroundColor=default;endArrow=classicThin;endFill=1;strokeWidth=2;" edge="1" parent="1" source="Uu9BYE0EDP3QgABRB0VM-17" target="Uu9BYE0EDP3QgABRB0VM-4">
          <mxGeometry relative="1" as="geometry">
            <Array as="points">
              <mxPoint x="296" y="810" />
              <mxPoint x="575" y="810" />
            </Array>
          </mxGeometry>
        </mxCell>
        <mxCell id="Uu9BYE0EDP3QgABRB0VM-199" style="edgeStyle=orthogonalEdgeStyle;shape=connector;curved=1;rounded=0;orthogonalLoop=1;jettySize=auto;html=1;exitX=0.5;exitY=1;exitDx=0;exitDy=0;exitPerimeter=0;entryX=0.995;entryY=0.63;entryDx=0;entryDy=0;entryPerimeter=0;strokeColor=#00CCCC;align=center;verticalAlign=middle;fontFamily=Architects Daughter;fontSource=https%3A%2F%2Ffonts.googleapis.com%2Fcss%3Ffamily%3DArchitects%2BDaughter;fontSize=11;fontColor=default;labelBackgroundColor=default;endArrow=classicThin;endFill=1;strokeWidth=2;" edge="1" parent="1" source="Uu9BYE0EDP3QgABRB0VM-51" target="Uu9BYE0EDP3QgABRB0VM-4">
          <mxGeometry relative="1" as="geometry">
            <Array as="points">
              <mxPoint x="746" y="820" />
              <mxPoint x="1050" y="820" />
              <mxPoint x="1050" y="1580" />
            </Array>
          </mxGeometry>
        </mxCell>
        <mxCell id="Uu9BYE0EDP3QgABRB0VM-200" style="edgeStyle=orthogonalEdgeStyle;shape=connector;curved=1;rounded=0;orthogonalLoop=1;jettySize=auto;html=1;exitX=0.5;exitY=1;exitDx=0;exitDy=0;exitPerimeter=0;entryX=0.5;entryY=0;entryDx=0;entryDy=0;entryPerimeter=0;strokeColor=default;align=center;verticalAlign=middle;fontFamily=Architects Daughter;fontSource=https%3A%2F%2Ffonts.googleapis.com%2Fcss%3Ffamily%3DArchitects%2BDaughter;fontSize=11;fontColor=default;labelBackgroundColor=default;endArrow=classicThin;endFill=1;" edge="1" parent="1" source="Uu9BYE0EDP3QgABRB0VM-4" target="Uu9BYE0EDP3QgABRB0VM-16">
          <mxGeometry relative="1" as="geometry" />
        </mxCell>
        <mxCell id="Uu9BYE0EDP3QgABRB0VM-201" value="bind" style="edgeLabel;html=1;align=center;verticalAlign=middle;resizable=0;points=[];strokeColor=default;fontFamily=Architects Daughter;fontSource=https%3A%2F%2Ffonts.googleapis.com%2Fcss%3Ffamily%3DArchitects%2BDaughter;fontSize=14;fontColor=default;labelBackgroundColor=default;fillColor=default;" vertex="1" connectable="0" parent="Uu9BYE0EDP3QgABRB0VM-200">
          <mxGeometry x="-0.1746" y="-3" relative="1" as="geometry">
            <mxPoint as="offset" />
          </mxGeometry>
        </mxCell>
        <mxCell id="Uu9BYE0EDP3QgABRB0VM-4" value="Persistent Volume Claim" style="aspect=fixed;sketch=0;html=1;dashed=0;whitespace=wrap;verticalLabelPosition=middle;verticalAlign=middle;fillColor=#2875E2;strokeColor=#ffffff;points=[[0.005,0.63,0],[0.1,0.2,0],[0.9,0.2,0],[0.5,0,0],[0.995,0.63,0],[0.72,0.99,0],[0.5,1,0],[0.28,0.99,0]];shape=mxgraph.kubernetes.icon2;prIcon=pvc;align=right;fontFamily=Architects Daughter;fontSource=https%3A%2F%2Ffonts.googleapis.com%2Fcss%3Ffamily%3DArchitects%2BDaughter;fontSize=15;fontColor=default;labelBackgroundColor=default;labelPosition=left;" vertex="1" parent="1">
          <mxGeometry x="550" y="1550" width="50" height="48" as="geometry" />
        </mxCell>
        <mxCell id="Uu9BYE0EDP3QgABRB0VM-210" value="" style="group;fontFamily=Architects Daughter;fontSource=https%3A%2F%2Ffonts.googleapis.com%2Fcss%3Ffamily%3DArchitects%2BDaughter;fontSize=20;fontStyle=1" vertex="1" connectable="0" parent="1">
          <mxGeometry x="140" y="1520" width="220" height="190" as="geometry" />
        </mxCell>
        <mxCell id="Uu9BYE0EDP3QgABRB0VM-211" value="&#xa;&lt;span style=&quot;color: rgb(0, 0, 0); font-family: &amp;quot;Architects Daughter&amp;quot;; font-size: 20px; font-style: normal; font-variant-ligatures: normal; font-variant-caps: normal; font-weight: 700; letter-spacing: normal; orphans: 2; text-align: center; text-indent: 0px; text-transform: none; widows: 2; word-spacing: 0px; -webkit-text-stroke-width: 0px; white-space: nowrap; text-decoration-thickness: initial; text-decoration-style: initial; text-decoration-color: initial; float: none; display: inline !important;&quot;&gt;Artemis&lt;/span&gt;&#xa;&#xa;" style="rounded=0;whiteSpace=wrap;html=1;strokeColor=default;align=center;verticalAlign=bottom;fontFamily=Architects Daughter;fontSource=https%3A%2F%2Ffonts.googleapis.com%2Fcss%3Ffamily%3DArchitects%2BDaughter;fontSize=15;fontColor=default;labelBackgroundColor=none;fillColor=default;dashed=1;labelPosition=center;verticalLabelPosition=top;spacingTop=0;spacingBottom=-37;" vertex="1" parent="Uu9BYE0EDP3QgABRB0VM-210">
          <mxGeometry x="20" y="20" width="200" height="170" as="geometry" />
        </mxCell>
        <mxCell id="Uu9BYE0EDP3QgABRB0VM-212" value="" style="aspect=fixed;sketch=0;html=1;dashed=0;whitespace=wrap;verticalLabelPosition=bottom;verticalAlign=top;fillColor=#2875E2;strokeColor=#ffffff;points=[[0.005,0.63,0],[0.1,0.2,0],[0.9,0.2,0],[0.5,0,0],[0.995,0.63,0],[0.72,0.99,0],[0.5,1,0],[0.28,0.99,0]];shape=mxgraph.kubernetes.icon2;kubernetesLabel=1;prIcon=deploy;align=center;fontFamily=Architects Daughter;fontSource=https%3A%2F%2Ffonts.googleapis.com%2Fcss%3Ffamily%3DArchitects%2BDaughter;fontSize=15;fontColor=default;labelBackgroundColor=default;" vertex="1" parent="Uu9BYE0EDP3QgABRB0VM-210">
          <mxGeometry width="50" height="48" as="geometry" />
        </mxCell>
        <mxCell id="Uu9BYE0EDP3QgABRB0VM-213" value="" style="group" vertex="1" connectable="0" parent="Uu9BYE0EDP3QgABRB0VM-210">
          <mxGeometry x="50" y="30" width="140" height="150" as="geometry" />
        </mxCell>
        <mxCell id="Uu9BYE0EDP3QgABRB0VM-214" value="" style="shape=cube;whiteSpace=wrap;html=1;boundedLbl=1;backgroundOutline=1;darkOpacity=0.05;darkOpacity2=0.1;strokeColor=default;align=center;verticalAlign=top;fontFamily=Architects Daughter;fontSource=https%3A%2F%2Ffonts.googleapis.com%2Fcss%3Ffamily%3DArchitects%2BDaughter;fontSize=15;fontColor=default;labelBackgroundColor=default;fillColor=default;" vertex="1" parent="Uu9BYE0EDP3QgABRB0VM-213">
          <mxGeometry x="20" y="30" width="120" height="120" as="geometry" />
        </mxCell>
        <mxCell id="Uu9BYE0EDP3QgABRB0VM-215" value="&lt;font style=&quot;font-size: 15px;&quot;&gt;/shared&lt;/font&gt;" style="aspect=fixed;sketch=0;html=1;dashed=0;whitespace=wrap;verticalLabelPosition=middle;verticalAlign=middle;fillColor=#2875E2;strokeColor=#ffffff;points=[[0.005,0.63,0],[0.1,0.2,0],[0.9,0.2,0],[0.5,0,0],[0.995,0.63,0],[0.72,0.99,0],[0.5,1,0],[0.28,0.99,0]];shape=mxgraph.kubernetes.icon2;prIcon=vol;align=left;fontFamily=Architects Daughter;fontSource=https%3A%2F%2Ffonts.googleapis.com%2Fcss%3Ffamily%3DArchitects%2BDaughter;fontSize=12;fontColor=default;labelBackgroundColor=default;labelPosition=right;spacingTop=0;spacingBottom=-11;" vertex="1" parent="Uu9BYE0EDP3QgABRB0VM-213">
          <mxGeometry x="40" y="120" width="31.25" height="30" as="geometry" />
        </mxCell>
        <mxCell id="Uu9BYE0EDP3QgABRB0VM-216" value="" style="aspect=fixed;sketch=0;html=1;dashed=0;whitespace=wrap;verticalLabelPosition=bottom;verticalAlign=top;fillColor=#2875E2;strokeColor=#ffffff;points=[[0.005,0.63,0],[0.1,0.2,0],[0.9,0.2,0],[0.5,0,0],[0.995,0.63,0],[0.72,0.99,0],[0.5,1,0],[0.28,0.99,0]];shape=mxgraph.kubernetes.icon2;kubernetesLabel=1;prIcon=pod;align=center;fontFamily=Architects Daughter;fontSource=https%3A%2F%2Ffonts.googleapis.com%2Fcss%3Ffamily%3DArchitects%2BDaughter;fontSize=15;fontColor=default;labelBackgroundColor=default;" vertex="1" parent="Uu9BYE0EDP3QgABRB0VM-213">
          <mxGeometry width="50" height="48" as="geometry" />
        </mxCell>
        <mxCell id="Uu9BYE0EDP3QgABRB0VM-217" value="" style="shape=image;verticalLabelPosition=bottom;labelBackgroundColor=default;verticalAlign=top;aspect=fixed;imageAspect=0;image=https://cdn.icon-icons.com/icons2/2699/PNG/512/talend_logo_icon_169665.png;" vertex="1" parent="Uu9BYE0EDP3QgABRB0VM-213">
          <mxGeometry x="60" y="59" width="62" height="62" as="geometry" />
        </mxCell>
        <mxCell id="Uu9BYE0EDP3QgABRB0VM-218" style="edgeStyle=orthogonalEdgeStyle;shape=connector;curved=1;rounded=0;orthogonalLoop=1;jettySize=auto;html=1;exitX=0;exitY=1;exitDx=0;exitDy=0;entryX=0;entryY=0.5;entryDx=0;entryDy=0;strokeColor=#CC6600;align=center;verticalAlign=middle;fontFamily=Architects Daughter;fontSource=https%3A%2F%2Ffonts.googleapis.com%2Fcss%3Ffamily%3DArchitects%2BDaughter;fontSize=11;fontColor=default;labelBackgroundColor=default;endArrow=classicThin;endFill=1;strokeWidth=2;" edge="1" parent="1" source="Uu9BYE0EDP3QgABRB0VM-18" target="Uu9BYE0EDP3QgABRB0VM-211">
          <mxGeometry relative="1" as="geometry">
            <Array as="points">
              <mxPoint x="100" y="780" />
              <mxPoint x="100" y="1625" />
            </Array>
          </mxGeometry>
        </mxCell>
        <mxCell id="Uu9BYE0EDP3QgABRB0VM-220" style="edgeStyle=orthogonalEdgeStyle;shape=connector;curved=1;rounded=0;orthogonalLoop=1;jettySize=auto;html=1;exitX=0;exitY=0.75;exitDx=0;exitDy=0;entryX=0;entryY=0.5;entryDx=0;entryDy=0;strokeColor=#CC6600;align=center;verticalAlign=middle;fontFamily=Architects Daughter;fontSource=https%3A%2F%2Ffonts.googleapis.com%2Fcss%3Ffamily%3DArchitects%2BDaughter;fontSize=11;fontColor=default;labelBackgroundColor=default;endArrow=classicThin;endFill=1;strokeWidth=2;" edge="1" parent="1" source="Uu9BYE0EDP3QgABRB0VM-153" target="Uu9BYE0EDP3QgABRB0VM-211">
          <mxGeometry relative="1" as="geometry" />
        </mxCell>
        <mxCell id="Uu9BYE0EDP3QgABRB0VM-221" style="edgeStyle=orthogonalEdgeStyle;shape=connector;curved=1;rounded=0;orthogonalLoop=1;jettySize=auto;html=1;exitX=0.5;exitY=1;exitDx=0;exitDy=0;entryX=0.75;entryY=1;entryDx=0;entryDy=0;strokeColor=#CC6600;align=center;verticalAlign=middle;fontFamily=Architects Daughter;fontSource=https%3A%2F%2Ffonts.googleapis.com%2Fcss%3Ffamily%3DArchitects%2BDaughter;fontSize=11;fontColor=default;labelBackgroundColor=default;endArrow=classicThin;endFill=1;strokeWidth=2;" edge="1" parent="1" source="Uu9BYE0EDP3QgABRB0VM-150" target="Uu9BYE0EDP3QgABRB0VM-211">
          <mxGeometry relative="1" as="geometry">
            <Array as="points">
              <mxPoint x="800" y="1760" />
              <mxPoint x="310" y="1760" />
            </Array>
          </mxGeometry>
        </mxCell>
        <mxCell id="Uu9BYE0EDP3QgABRB0VM-222" style="edgeStyle=orthogonalEdgeStyle;shape=connector;curved=1;rounded=0;orthogonalLoop=1;jettySize=auto;html=1;exitX=1;exitY=1;exitDx=0;exitDy=0;entryX=0.75;entryY=1;entryDx=0;entryDy=0;strokeColor=#CC6600;align=center;verticalAlign=middle;fontFamily=Architects Daughter;fontSource=https%3A%2F%2Ffonts.googleapis.com%2Fcss%3Ffamily%3DArchitects%2BDaughter;fontSize=11;fontColor=default;labelBackgroundColor=default;endArrow=classicThin;endFill=1;strokeWidth=2;" edge="1" parent="1" source="Uu9BYE0EDP3QgABRB0VM-49" target="Uu9BYE0EDP3QgABRB0VM-211">
          <mxGeometry relative="1" as="geometry">
            <Array as="points">
              <mxPoint x="1060" y="770" />
              <mxPoint x="1060" y="1770" />
              <mxPoint x="310" y="1770" />
            </Array>
          </mxGeometry>
        </mxCell>
        <mxCell id="Uu9BYE0EDP3QgABRB0VM-224" value="&lt;font style=&quot;font-size: 20px;&quot;&gt;&lt;b&gt;MongoDB&lt;/b&gt;&lt;/font&gt;" style="dashed=0;outlineConnect=0;html=1;align=center;labelPosition=center;verticalLabelPosition=bottom;verticalAlign=top;shape=mxgraph.webicons.mongodb;gradientColor=#DFDEDE;strokeColor=default;fontFamily=Architects Daughter;fontSource=https%3A%2F%2Ffonts.googleapis.com%2Fcss%3Ffamily%3DArchitects%2BDaughter;fontSize=11;fontColor=default;labelBackgroundColor=default;strokeWidth=1;shadow=0;perimeterSpacing=0;" vertex="1" parent="1">
          <mxGeometry x="-116.4" y="1290" width="102.4" height="102.4" as="geometry" />
        </mxCell>
        <mxCell id="Uu9BYE0EDP3QgABRB0VM-225" value="Redis" style="shape=image;verticalLabelPosition=bottom;labelBackgroundColor=default;verticalAlign=top;aspect=fixed;imageAspect=0;image=https://www.svgrepo.com/show/303460/redis-logo.svg;fontSize=20;fontFamily=Architects Daughter;fontSource=https%3A%2F%2Ffonts.googleapis.com%2Fcss%3Ffamily%3DArchitects%2BDaughter;fontStyle=1" vertex="1" parent="1">
          <mxGeometry x="1161.2" y="983.43" width="103" height="103" as="geometry" />
        </mxCell>
        <mxCell id="Uu9BYE0EDP3QgABRB0VM-226" style="edgeStyle=orthogonalEdgeStyle;shape=connector;curved=1;rounded=0;orthogonalLoop=1;jettySize=auto;html=1;exitX=1;exitY=1;exitDx=0;exitDy=0;entryX=0.5;entryY=0;entryDx=0;entryDy=0;strokeColor=#CC0000;align=center;verticalAlign=middle;fontFamily=Architects Daughter;fontSource=https%3A%2F%2Ffonts.googleapis.com%2Fcss%3Ffamily%3DArchitects%2BDaughter;fontSize=11;fontColor=default;labelBackgroundColor=default;endArrow=classicThin;endFill=1;strokeWidth=2;" edge="1" parent="1" source="Uu9BYE0EDP3QgABRB0VM-24" target="Uu9BYE0EDP3QgABRB0VM-225">
          <mxGeometry relative="1" as="geometry">
            <Array as="points">
              <mxPoint x="500" y="810" />
              <mxPoint x="1213" y="810" />
            </Array>
          </mxGeometry>
        </mxCell>
        <mxCell id="Uu9BYE0EDP3QgABRB0VM-227" style="edgeStyle=orthogonalEdgeStyle;shape=connector;curved=1;rounded=0;orthogonalLoop=1;jettySize=auto;html=1;exitX=1;exitY=1;exitDx=0;exitDy=0;entryX=0.5;entryY=0;entryDx=0;entryDy=0;strokeColor=#CC0000;align=center;verticalAlign=middle;fontFamily=Architects Daughter;fontSource=https%3A%2F%2Ffonts.googleapis.com%2Fcss%3Ffamily%3DArchitects%2BDaughter;fontSize=11;fontColor=default;labelBackgroundColor=default;endArrow=classicThin;endFill=1;strokeWidth=2;" edge="1" parent="1" source="Uu9BYE0EDP3QgABRB0VM-49" target="Uu9BYE0EDP3QgABRB0VM-225">
          <mxGeometry relative="1" as="geometry">
            <Array as="points">
              <mxPoint x="950" y="860" />
              <mxPoint x="1213" y="860" />
            </Array>
          </mxGeometry>
        </mxCell>
        <mxCell id="Uu9BYE0EDP3QgABRB0VM-228" style="edgeStyle=orthogonalEdgeStyle;shape=connector;curved=1;rounded=0;orthogonalLoop=1;jettySize=auto;html=1;exitX=1;exitY=0.75;exitDx=0;exitDy=0;entryX=1;entryY=0.5;entryDx=0;entryDy=0;strokeColor=#CC0000;align=center;verticalAlign=middle;fontFamily=Architects Daughter;fontSource=https%3A%2F%2Ffonts.googleapis.com%2Fcss%3Ffamily%3DArchitects%2BDaughter;fontSize=11;fontColor=default;labelBackgroundColor=default;endArrow=classicThin;endFill=1;strokeWidth=2;" edge="1" parent="1" source="Uu9BYE0EDP3QgABRB0VM-150" target="Uu9BYE0EDP3QgABRB0VM-225">
          <mxGeometry relative="1" as="geometry" />
        </mxCell>
        <mxCell id="Uu9BYE0EDP3QgABRB0VM-229" style="edgeStyle=orthogonalEdgeStyle;shape=connector;curved=1;rounded=0;orthogonalLoop=1;jettySize=auto;html=1;exitX=1;exitY=1;exitDx=0;exitDy=0;entryX=1;entryY=0.5;entryDx=0;entryDy=0;strokeColor=#CC0000;align=center;verticalAlign=middle;fontFamily=Architects Daughter;fontSource=https%3A%2F%2Ffonts.googleapis.com%2Fcss%3Ffamily%3DArchitects%2BDaughter;fontSize=11;fontColor=default;labelBackgroundColor=default;endArrow=classicThin;endFill=1;strokeWidth=2;" edge="1" parent="1" source="Uu9BYE0EDP3QgABRB0VM-153" target="Uu9BYE0EDP3QgABRB0VM-225">
          <mxGeometry relative="1" as="geometry">
            <Array as="points">
              <mxPoint x="530" y="1520" />
              <mxPoint x="1284" y="1520" />
              <mxPoint x="1284" y="1035" />
            </Array>
          </mxGeometry>
        </mxCell>
        <mxCell id="Uu9BYE0EDP3QgABRB0VM-230" style="edgeStyle=orthogonalEdgeStyle;shape=connector;curved=1;rounded=0;orthogonalLoop=1;jettySize=auto;html=1;exitX=0;exitY=1;exitDx=0;exitDy=0;strokeColor=#00CC00;align=center;verticalAlign=middle;fontFamily=Architects Daughter;fontSource=https%3A%2F%2Ffonts.googleapis.com%2Fcss%3Ffamily%3DArchitects%2BDaughter;fontSize=11;fontColor=default;labelBackgroundColor=default;endArrow=classicThin;endFill=1;strokeWidth=2;" edge="1" parent="1" source="Uu9BYE0EDP3QgABRB0VM-89" target="Uu9BYE0EDP3QgABRB0VM-224">
          <mxGeometry relative="1" as="geometry">
            <Array as="points">
              <mxPoint x="220" y="1235" />
              <mxPoint x="-65" y="1235" />
            </Array>
          </mxGeometry>
        </mxCell>
        <mxCell id="Uu9BYE0EDP3QgABRB0VM-231" style="edgeStyle=orthogonalEdgeStyle;shape=connector;curved=1;rounded=0;orthogonalLoop=1;jettySize=auto;html=1;exitX=0;exitY=1;exitDx=0;exitDy=0;strokeColor=#00CC00;align=center;verticalAlign=middle;fontFamily=Architects Daughter;fontSource=https%3A%2F%2Ffonts.googleapis.com%2Fcss%3Ffamily%3DArchitects%2BDaughter;fontSize=11;fontColor=default;labelBackgroundColor=default;endArrow=classicThin;endFill=1;strokeWidth=2;" edge="1" parent="1" source="Uu9BYE0EDP3QgABRB0VM-109" target="Uu9BYE0EDP3QgABRB0VM-224">
          <mxGeometry relative="1" as="geometry">
            <Array as="points">
              <mxPoint x="670" y="1230" />
              <mxPoint x="-65" y="1230" />
            </Array>
          </mxGeometry>
        </mxCell>
        <mxCell id="Uu9BYE0EDP3QgABRB0VM-233" value="PostgreSQL" style="shape=image;verticalLabelPosition=bottom;labelBackgroundColor=none;verticalAlign=top;aspect=fixed;imageAspect=0;image=https://upload.wikimedia.org/wikipedia/commons/thumb/2/29/Postgresql_elephant.svg/540px-Postgresql_elephant.svg.png;fontStyle=1;fontSize=20;" vertex="1" parent="1">
          <mxGeometry x="1160" y="676.86" width="100" height="103.14" as="geometry" />
        </mxCell>
        <mxCell id="Uu9BYE0EDP3QgABRB0VM-234" style="edgeStyle=orthogonalEdgeStyle;shape=connector;curved=1;rounded=0;orthogonalLoop=1;jettySize=auto;html=1;exitX=1;exitY=1;exitDx=0;exitDy=0;entryX=0;entryY=0.75;entryDx=0;entryDy=0;strokeColor=#1100FF;align=center;verticalAlign=middle;fontFamily=Architects Daughter;fontSource=https%3A%2F%2Ffonts.googleapis.com%2Fcss%3Ffamily%3DArchitects%2BDaughter;fontSize=11;fontColor=default;labelBackgroundColor=default;endArrow=classicThin;endFill=1;strokeWidth=2;" edge="1" parent="1" source="Uu9BYE0EDP3QgABRB0VM-24" target="Uu9BYE0EDP3QgABRB0VM-233">
          <mxGeometry relative="1" as="geometry">
            <Array as="points">
              <mxPoint x="500" y="790" />
              <mxPoint x="1100" y="790" />
              <mxPoint x="1100" y="754" />
            </Array>
          </mxGeometry>
        </mxCell>
        <mxCell id="Uu9BYE0EDP3QgABRB0VM-235" style="edgeStyle=orthogonalEdgeStyle;shape=connector;curved=1;rounded=0;orthogonalLoop=1;jettySize=auto;html=1;exitX=1.001;exitY=0.905;exitDx=0;exitDy=0;entryX=0;entryY=0.75;entryDx=0;entryDy=0;strokeColor=#1100FF;align=center;verticalAlign=middle;fontFamily=Architects Daughter;fontSource=https%3A%2F%2Ffonts.googleapis.com%2Fcss%3Ffamily%3DArchitects%2BDaughter;fontSize=11;fontColor=default;labelBackgroundColor=default;endArrow=classicThin;endFill=1;exitPerimeter=0;strokeWidth=2;" edge="1" parent="1" source="Uu9BYE0EDP3QgABRB0VM-46" target="Uu9BYE0EDP3QgABRB0VM-233">
          <mxGeometry relative="1" as="geometry">
            <Array as="points">
              <mxPoint x="1000" y="754" />
            </Array>
          </mxGeometry>
        </mxCell>
        <mxCell id="Uu9BYE0EDP3QgABRB0VM-236" style="edgeStyle=orthogonalEdgeStyle;shape=connector;curved=1;rounded=0;orthogonalLoop=1;jettySize=auto;html=1;exitX=1;exitY=1;exitDx=0;exitDy=0;entryX=1;entryY=0.75;entryDx=0;entryDy=0;strokeColor=#1100FF;align=center;verticalAlign=middle;fontFamily=Architects Daughter;fontSource=https%3A%2F%2Ffonts.googleapis.com%2Fcss%3Ffamily%3DArchitects%2BDaughter;fontSize=11;fontColor=default;labelBackgroundColor=default;endArrow=classicThin;endFill=1;strokeWidth=2;" edge="1" parent="1" source="Uu9BYE0EDP3QgABRB0VM-153" target="Uu9BYE0EDP3QgABRB0VM-233">
          <mxGeometry relative="1" as="geometry">
            <Array as="points">
              <mxPoint x="530" y="1540" />
              <mxPoint x="1330" y="1540" />
              <mxPoint x="1330" y="754" />
            </Array>
          </mxGeometry>
        </mxCell>
        <mxCell id="Uu9BYE0EDP3QgABRB0VM-237" style="edgeStyle=orthogonalEdgeStyle;shape=connector;curved=1;rounded=0;orthogonalLoop=1;jettySize=auto;html=1;exitX=1.001;exitY=0.837;exitDx=0;exitDy=0;entryX=1;entryY=0.75;entryDx=0;entryDy=0;strokeColor=#1100FF;align=center;verticalAlign=middle;fontFamily=Architects Daughter;fontSource=https%3A%2F%2Ffonts.googleapis.com%2Fcss%3Ffamily%3DArchitects%2BDaughter;fontSize=11;fontColor=default;labelBackgroundColor=default;endArrow=classicThin;endFill=1;strokeWidth=2;exitPerimeter=0;" edge="1" parent="1" source="Uu9BYE0EDP3QgABRB0VM-150" target="Uu9BYE0EDP3QgABRB0VM-233">
          <mxGeometry relative="1" as="geometry">
            <Array as="points">
              <mxPoint x="1330" y="1462" />
              <mxPoint x="1330" y="754" />
            </Array>
          </mxGeometry>
        </mxCell>
        <mxCell id="Uu9BYE0EDP3QgABRB0VM-238" value="&lt;font style=&quot;font-size: 20px;&quot; data-font-src=&quot;https://fonts.googleapis.com/css?family=Architects+Daughter&quot; face=&quot;Architects Daughter&quot;&gt;&lt;b&gt;IAM&lt;/b&gt;&lt;/font&gt;" style="shape=cube;whiteSpace=wrap;html=1;boundedLbl=1;backgroundOutline=1;darkOpacity=0.05;darkOpacity2=0.1;size=10;fillColor=#1ba1e2;strokeColor=#006EAF;fontColor=#ffffff;fontStyle=0" vertex="1" parent="1">
          <mxGeometry x="-110.77" y="1045" width="96.77" height="100" as="geometry" />
        </mxCell>
        <mxCell id="Uu9BYE0EDP3QgABRB0VM-239" value="I" style="group;fontSize=14;" vertex="1" connectable="0" parent="1">
          <mxGeometry x="1160" y="1178" width="98.13" height="92" as="geometry" />
        </mxCell>
        <mxCell id="Uu9BYE0EDP3QgABRB0VM-240" value="&lt;font style=&quot;font-size: 20px;&quot;&gt;&lt;b&gt;IO&lt;/b&gt;&lt;/font&gt;" style="rounded=1;whiteSpace=wrap;html=1;strokeColor=none;align=center;verticalAlign=top;fontFamily=Architects Daughter;fontSource=https%3A%2F%2Ffonts.googleapis.com%2Fcss%3Ffamily%3DArchitects%2BDaughter;fontSize=15;fontColor=default;labelBackgroundColor=default;fillColor=#0B3EE3;labelPosition=center;verticalLabelPosition=bottom;" vertex="1" parent="Uu9BYE0EDP3QgABRB0VM-239">
          <mxGeometry width="98.13" height="92" as="geometry" />
        </mxCell>
        <mxCell id="Uu9BYE0EDP3QgABRB0VM-241" value="" style="shape=image;verticalLabelPosition=bottom;labelBackgroundColor=default;verticalAlign=top;aspect=fixed;imageAspect=0;image=https://selcdcheckoutsa.z6.web.core.windows.net/resources/products/prod-io/logo.svg;fontColor=#FFFFFF;" vertex="1" parent="Uu9BYE0EDP3QgABRB0VM-239">
          <mxGeometry x="17.632734375" y="14.566666666666668" width="62.86453125" height="62.86453125" as="geometry" />
        </mxCell>
        <mxCell id="Uu9BYE0EDP3QgABRB0VM-248" value="Nodo dei&#xa;pagamenti" style="group;labelPosition=center;verticalLabelPosition=bottom;align=center;verticalAlign=top;fontFamily=Architects Daughter;fontSource=https%3A%2F%2Ffonts.googleapis.com%2Fcss%3Ffamily%3DArchitects%2BDaughter;fontSize=20;fontStyle=1" vertex="1" connectable="0" parent="1">
          <mxGeometry x="-110" y="621" width="96" height="96" as="geometry" />
        </mxCell>
        <mxCell id="Uu9BYE0EDP3QgABRB0VM-249" value="" style="rounded=1;whiteSpace=wrap;html=1;strokeColor=none;align=center;verticalAlign=top;fontFamily=Architects Daughter;fontSource=https%3A%2F%2Ffonts.googleapis.com%2Fcss%3Ffamily%3DArchitects%2BDaughter;fontSize=15;fontColor=default;labelBackgroundColor=default;fillColor=#0066CC;movable=1;resizable=1;rotatable=1;deletable=1;editable=1;locked=0;connectable=1;labelPosition=center;verticalLabelPosition=bottom;" vertex="1" parent="Uu9BYE0EDP3QgABRB0VM-248">
          <mxGeometry width="96" height="96" as="geometry" />
        </mxCell>
        <mxCell id="Uu9BYE0EDP3QgABRB0VM-250" value="" style="shape=image;verticalLabelPosition=bottom;labelBackgroundColor=default;verticalAlign=top;aspect=fixed;imageAspect=0;image=https://selcdcheckoutsa.z6.web.core.windows.net/resources/products/prod-pagopa/logo.svg;imageBackground=#0066CC;movable=1;resizable=1;rotatable=1;deletable=1;editable=1;locked=0;connectable=1;labelPosition=center;align=center;" vertex="1" parent="Uu9BYE0EDP3QgABRB0VM-248">
          <mxGeometry x="7.5" y="7.5" width="81" height="81" as="geometry" />
        </mxCell>
        <mxCell id="Uu9BYE0EDP3QgABRB0VM-252" style="edgeStyle=orthogonalEdgeStyle;shape=connector;curved=1;rounded=0;orthogonalLoop=1;jettySize=auto;html=1;exitX=1;exitY=1;exitDx=0;exitDy=0;entryX=0;entryY=0.5;entryDx=0;entryDy=0;strokeColor=default;align=center;verticalAlign=middle;fontFamily=Architects Daughter;fontSource=https%3A%2F%2Ffonts.googleapis.com%2Fcss%3Ffamily%3DArchitects%2BDaughter;fontSize=11;fontColor=default;labelBackgroundColor=default;endArrow=classicThin;endFill=1;strokeWidth=2;" edge="1" parent="1" source="Uu9BYE0EDP3QgABRB0VM-109" target="Uu9BYE0EDP3QgABRB0VM-240">
          <mxGeometry relative="1" as="geometry" />
        </mxCell>
        <mxCell id="Uu9BYE0EDP3QgABRB0VM-253" style="edgeStyle=orthogonalEdgeStyle;shape=connector;curved=1;rounded=0;orthogonalLoop=1;jettySize=auto;html=1;exitX=0;exitY=0.5;exitDx=0;exitDy=0;entryX=0;entryY=0;entryDx=96.77;entryDy=55;entryPerimeter=0;strokeColor=default;align=center;verticalAlign=middle;fontFamily=Architects Daughter;fontSource=https%3A%2F%2Ffonts.googleapis.com%2Fcss%3Ffamily%3DArchitects%2BDaughter;fontSize=11;fontColor=default;labelBackgroundColor=default;endArrow=classicThin;endFill=1;strokeWidth=2;" edge="1" parent="1" source="Uu9BYE0EDP3QgABRB0VM-89" target="Uu9BYE0EDP3QgABRB0VM-238">
          <mxGeometry relative="1" as="geometry" />
        </mxCell>
        <mxCell id="Uu9BYE0EDP3QgABRB0VM-254" style="edgeStyle=orthogonalEdgeStyle;shape=connector;curved=1;rounded=0;orthogonalLoop=1;jettySize=auto;html=1;exitX=0;exitY=0.5;exitDx=0;exitDy=0;entryX=1;entryY=0.5;entryDx=0;entryDy=0;strokeColor=default;align=center;verticalAlign=middle;fontFamily=Architects Daughter;fontSource=https%3A%2F%2Ffonts.googleapis.com%2Fcss%3Ffamily%3DArchitects%2BDaughter;fontSize=11;fontColor=default;labelBackgroundColor=default;endArrow=classicThin;endFill=1;strokeWidth=2;" edge="1" parent="1" source="Uu9BYE0EDP3QgABRB0VM-24" target="Uu9BYE0EDP3QgABRB0VM-249">
          <mxGeometry relative="1" as="geometry" />
        </mxCell>
      </root>
    </mxGraphModel>
  </diagram>
</mxfile>
